<svg xmlns="http://www.w3.org/2000/svg" viewBox="0 0 25 25" id="gearmagnifying"><g data-name="magnifying gear" fill="#ffffff" class="color000000 svgShape"><path d="M11.44,8.93a2.22,2.22,0,0,0-1.12-1.1l-.12,0a2.2,2.2,0,0,0-.76-.13,2.22,2.22,0,0,0-.8.15l-.11,0A2.22,2.22,0,0,0,7.43,9l0,.12a2.2,2.2,0,0,0-.13.76,2.22,2.22,0,0,0,.15.8,2.19,2.19,0,0,0,4.23-.8A2.46,2.46,0,0,0,11.49,9S11.45,8.94,11.44,8.93Z" fill="#ffffff" class="color000000 svgShape"></path><path d="M15.43 14a1 1 0 00-.3-.73l-.56-.56a6.32 6.32 0 00.54-1.32h.8a1 1 0 001-1V9.3a1 1 0 00-1-1h-.8A6.32 6.32 0 0014.57 7l.56-.56a1 1 0 00.3-.73 1 1 0 00-.3-.73l-.77-.77a1 1 0 00-1.46 0l-.57.56A5.56 5.56 0 0011 4.18v-.8a1 1 0 00-1-1H8.9a1 1 0 00-1 1v.8a5.82 5.82 0 00-1.32.54L6 4.16a1 1 0 00-1.46 0l-.77.77a1 1 0 00-.31.73 1 1 0 00.31.73L4.32 7a5.82 5.82 0 00-.54 1.32H3a1 1 0 00-1 1v1.09a1 1 0 001 1h.8a5.82 5.82 0 00.54 1.32l-.56.56a1 1 0 00-.31.73 1 1 0 00.31.73l.77.77a1 1 0 001.46 0L6.55 15a5.82 5.82 0 001.32.54v.8a1 1 0 001 1H10a1 1 0 001-1v-.8A5.56 5.56 0 0012.33 15l.57.56a1 1 0 001.46 0l.77-.77A1 1 0 0015.43 14zm-6-1a3.2 3.2 0 01-3-2 3.37 3.37 0 01-.22-1.17 3.29 3.29 0 01.22-1.17.37.37 0 010-.11A3.17 3.17 0 018.17 6.92l.11 0a3.23 3.23 0 012.33 0l.11 0a3.24 3.24 0 011.65 1.65l.05.11a3.28 3.28 0 01.21 1.17A3.2 3.2 0 019.44 13zM19.16 14.31a3.22 3.22 0 00-3.22 3.22 3.26 3.26 0 00.67 1.95l-1.86 1.86a.5.5 0 00.71.71l1.87-1.88a3.14 3.14 0 001.83.58 3.22 3.22 0 100-6.44zm0 5.44a2.22 2.22 0 112.23-2.22A2.23 2.23 0 0119.16 19.75z" fill="#ffffff" class="color000000 svgShape"></path></g></svg>