<svg xmlns="http://www.w3.org/2000/svg" enable-background="new 0 0 512 512" viewBox="0 0 512 512" id="ProcessManagement"><path fill-rule="evenodd" d="M55.092,273.967l0.341-73.245c0.059-15.334-2.54-40.511-19.728-46.568c-2.113-0.745-4.324-1.128-6.564-1.163
	c-11.474-0.177-24.176,9.241-24.516,21.255L0.023,321.773c-0.421,14.874,5.039,28.02,15.546,38.526l73.558,73.556v78.142l90.153,0
	l0.168-126.913c0.025-16.549-2.051-33.219-15.045-44.931c-4.295-3.871-8.75-7.592-13.172-11.318
	c-13.925-11.735-27.756-23.572-40.144-36.909c-2.796-3.01-5.41-6.789-8.681-9.206c-8.696-6.423-20.743-6.369-28.641,1.519
	c-7.366,7.356-2.622,16.214,0.685,19.52l61.868,61.868c4.2,4.2-0.561,22.805-11.683,11.683l-56.737-56.736
	C51.254,303.932,54.994,298.788,55.092,273.967L55.092,273.967z M117.868,138.138C117.868,61.969,179.831,0.001,256,0.001
	c76.169,0,138.132,61.968,138.132,138.137c0,76.164-61.963,138.132-138.132,138.132C179.831,276.27,117.868,214.302,117.868,138.138
	L117.868,138.138z M307.113,215.656c-3.326-3.331-3.326-8.736,0-12.068l9.773-9.763h-22.349c-16.38,0-30.304-8.757-41.365-26.032
	l-8.862-13.839l-8.867,13.839c-11.071,17.276-24.98,26.032-41.366,26.032h-19.561c-4.715,0-8.535-3.819-8.535-8.535
	c0-4.71,3.819-8.53,8.535-8.53h19.561c10.326,0,19.163-5.948,26.988-18.172l13.109-20.451l-13.109-20.456
	c-7.825-12.224-16.662-18.167-26.988-18.167h-19.561c-4.715,0-8.535-3.825-8.535-8.535c0-4.715,3.819-8.535,8.535-8.535h19.561
	c16.385,0,30.295,8.761,41.366,26.032l8.867,13.839l8.862-13.839c11.061-17.271,24.985-26.032,41.365-26.032h22.349l-9.773-9.757
	c-3.326-3.337-3.326-8.736,0-12.068c3.342-3.332,8.736-3.332,12.078,0l24.332,24.326c3.326,3.332,3.326,8.736,0,12.068
	l-24.332,24.326c-1.666,1.665-3.85,2.501-6.039,2.501c-2.189,0-4.363-0.835-6.039-2.501c-3.326-3.332-3.326-8.736,0-12.068
	l9.773-9.758h-22.349c-10.336,0-19.158,5.943-26.993,18.167l-13.104,20.456l13.104,20.451c7.835,12.224,16.657,18.172,26.993,18.172
	h22.349l-9.773-9.762c-3.326-3.332-3.326-8.736,0-12.067c3.342-3.331,8.736-3.331,12.078,0l24.332,24.326
	c1.6,1.6,2.496,3.769,2.496,6.034c0,2.264-0.896,4.434-2.496,6.034l-24.332,24.331c-1.666,1.661-3.85,2.496-6.039,2.496
	C310.963,218.152,308.789,217.317,307.113,215.656L307.113,215.656z M456.908,273.967c0.098,24.821,3.838,29.965-12.806,46.609
	l-56.736,56.736c-11.121,11.123-15.883-7.482-11.683-11.683l61.868-61.868c3.306-3.306,8.051-12.164,0.685-19.52
	c-7.899-7.888-19.945-7.943-28.641-1.519c-3.271,2.417-5.885,6.195-8.681,9.206c-12.388,13.337-26.219,25.174-40.144,36.909
	c-4.422,3.727-8.876,7.448-13.171,11.319c-12.994,11.712-15.07,28.382-15.046,44.931l0.168,126.913l90.153,0.001v-78.143
	l73.558-73.556c10.507-10.506,15.966-23.652,15.546-38.526l-4.603-147.527c-0.34-12.014-13.042-21.432-24.517-21.256
	c-2.24,0.035-4.45,0.418-6.564,1.163c-17.187,6.057-19.786,31.234-19.727,46.568L456.908,273.967z" clip-rule="evenodd" fill="#ffffff" class="color000000 svgShape"></path></svg>