<svg xmlns="http://www.w3.org/2000/svg" data-name="Layer 1" viewBox="0 0 32 32" id="report"><path d="M24.5,5H21.949A2.5,2.5,0,0,0,19.5,3H19a3,3,0,0,0-6,0h-.5a2.5,2.5,0,0,0-2.449,2H7.5A2.5,2.5,0,0,0,5,7.5v22A2.5,2.5,0,0,0,7.5,32h17A2.5,2.5,0,0,0,27,29.5V7.5A2.5,2.5,0,0,0,24.5,5Zm-12-1h1a.5.5,0,0,0,.5-.5V3a2,2,0,0,1,4,0v.5a.5.5,0,0,0,.5.5h1a1.5,1.5,0,0,1,0,3h-7a1.5,1.5,0,0,1,0-3ZM26,29.5A1.5,1.5,0,0,1,24.5,31H7.5A1.5,1.5,0,0,1,6,29.5V7.5A1.5,1.5,0,0,1,7.5,6h2.551A2.5,2.5,0,0,0,12.5,8h7a2.5,2.5,0,0,0,2.449-2H24.5A1.5,1.5,0,0,1,26,7.5ZM9.5,20h4A1.5,1.5,0,0,0,15,18.5v-1a.5.5,0,0,0-1,0v1a.5.5,0,0,1-.5.5h-4a.5.5,0,0,1-.5-.5v-4a.5.5,0,0,1,.5-.5h4a.5.5,0,0,0,0-1h-4A1.5,1.5,0,0,0,8,14.5v4A1.5,1.5,0,0,0,9.5,20Zm5.682-6.354L12,16.828l-1.182-1.182a.5.5,0,0,0-.707.707l1.536,1.535a.5.5,0,0,0,.707,0l3.536-3.535a.5.5,0,0,0-.707-.707ZM14.5,26a.5.5,0,0,0-.5.5v1a.5.5,0,0,1-.5.5h-4a.5.5,0,0,1-.5-.5v-4a.5.5,0,0,1,.5-.5h4a.5.5,0,0,0,0-1h-4A1.5,1.5,0,0,0,8,23.5v4A1.5,1.5,0,0,0,9.5,29h4A1.5,1.5,0,0,0,15,27.5v-1A.5.5,0,0,0,14.5,26Zm.682-3.354L12,25.828l-1.182-1.182a.5.5,0,0,0-.707.707l1.536,1.535a.5.5,0,0,0,.707,0l3.536-3.535a.5.5,0,0,0-.707-.707ZM12.5,11h6a.5.5,0,0,0,0-1h-6a.5.5,0,0,0,0,1Zm11,4h-6a.5.5,0,0,0,0,1h6a.5.5,0,0,0,0-1Zm0,2h-6a.5.5,0,0,0,0,1h6a.5.5,0,0,0,0-1Zm0,7h-6a.5.5,0,0,0,0,1h6a.5.5,0,0,0,0-1Zm0,2h-6a.5.5,0,0,0,0,1h6a.5.5,0,0,0,0-1Z" fill="#ffffff" class="color000000 svgShape"></path></svg>