<svg xmlns="http://www.w3.org/2000/svg" data-name="Layer 1" viewBox="0 0 128 128" id="TimeManagement"><circle cx="45" cy="39" r="8" fill="#ffffff" class="color000000 svgShape"></circle><path d="M66 41.796v-5.592h-3.017a17.974 17.974 0 0 0-3.294-7.936l2.144-2.133-3.968-3.968-2.133 2.144a17.975 17.975 0 0 0-7.936-3.294V18h-5.592v3.017a17.975 17.975 0 0 0-7.936 3.294l-2.133-2.144-3.968 3.968 2.144 2.133a17.974 17.974 0 0 0-3.294 7.936H24v5.592h3.017a17.974 17.974 0 0 0 3.294 7.936l-2.144 2.133 3.968 3.968 2.133-2.144a17.973 17.973 0 0 0 7.936 3.294V60h5.592v-3.017a17.973 17.973 0 0 0 7.936-3.294l2.133 2.144 3.968-3.968-2.144-2.133a17.974 17.974 0 0 0 3.294-7.936zM45 51a12 12 0 1 1 12-12 12.014 12.014 0 0 1-12 12zm-33 49h35.432q-.52-1.965-.853-4H12a2 2 0 0 0 0 4zm0 10h39.497a42.876 42.876 0 0 1-1.986-4H12a2 2 0 0 0 0 4zm0-20h34.025c-.007-.334-.025-.665-.025-1 0-1.01.043-2.008.111-3H12a2 2 0 0 0 0 4zm0-10h34.952c.29-1.359.65-2.692 1.065-4H12a2 2 0 0 0 0 4zm40.687-14H12a2 2 0 0 0 0 4h38.44a42.997 42.997 0 0 1 2.247-4z" fill="#ffffff" class="color000000 svgShape"></path><path d="M69.063 127.08q-.8-.42-1.58-.874l-.142-.083A43.309 43.309 0 0 1 55.567 116H4V6a2.006 2.006 0 0 1 2-2h15v4a3.999 3.999 0 0 0 4 4h40a3.999 3.999 0 0 0 4-4V4h15a2.006 2.006 0 0 1 2 2v29h4V6a6.005 6.005 0 0 0-6-6H6a6.005 6.005 0 0 0-6 6v116a6.005 6.005 0 0 0 6 6h64.92q-.837-.39-1.653-.814l-.204-.105Z" fill="#ffffff" class="color000000 svgShape"></path><path d="M80 43v3.956a42.848 42.848 0 0 1 18 0V43a3.999 3.999 0 0 0-4-4H84a3.999 3.999 0 0 0-4 4Z" fill="#ffffff" class="color000000 svgShape"></path><circle cx="89" cy="89" r="2" fill="#ffffff" class="color000000 svgShape"></circle><path d="M98 51.06v-.006a38.969 38.969 0 0 0-18 0v.006a39 39 0 1 0 18 0ZM89 120a31 31 0 1 1 31-31 31.001 31.001 0 0 1-31 31Z" fill="#ffffff" class="color000000 svgShape"></path><path d="M112 89a2.006 2.006 0 0 1 2-2h1.92a26.927 26.927 0 0 0-6.48-15.61l-1.35 1.35a1.983 1.983 0 0 1-1.41.58 1.995 1.995 0 0 1-1.42-3.41l1.35-1.35A26.927 26.927 0 0 0 91 62.08V64a2 2 0 0 1-4 0v-1.92a26.927 26.927 0 0 0-15.61 6.48l1.35 1.35a1.995 1.995 0 0 1-1.42 3.41 1.983 1.983 0 0 1-1.41-.58l-1.35-1.35A26.927 26.927 0 0 0 62.08 87H64a2 2 0 0 1 0 4h-1.92a26.927 26.927 0 0 0 6.48 15.61l1.35-1.35a2.001 2.001 0 1 1 2.83 2.83l-1.35 1.35A26.927 26.927 0 0 0 87 115.92V114a2 2 0 0 1 4 0v1.92a26.927 26.927 0 0 0 15.61-6.48l-1.35-1.35a2.001 2.001 0 1 1 2.83-2.83l1.35 1.35A26.927 26.927 0 0 0 115.92 91H114a2.006 2.006 0 0 1-2-2Zm-23 6a6 6 0 0 1-5.65-4H72a2 2 0 0 1 0-4h11.35A6.001 6.001 0 0 1 87 83.35V72a2 2 0 0 1 4 0v11.35A5.996 5.996 0 0 1 89 95Z" fill="#ffffff" class="color000000 svgShape"></path></svg>