<svg xmlns="http://www.w3.org/2000/svg" width="467" height="630" viewBox="0 0 467 630">
    <g fill="none" fill-rule="evenodd">
        <path fill="#FFF" fill-opacity=".01" d="M0 0h467v630H0z"/>
        <g transform="translate(343.686 136.64)">
            <circle cx="32.156" cy="32.156" r="32.156" fill="#F2F2F2"/>
            <circle cx="32.156" cy="6.674" r="1.82" fill="#000" fill-opacity=".1"/>
            <circle cx="6.674" cy="32.156" r="1.82" fill="#000" fill-opacity=".1"/>
            <circle cx="57.638" cy="32.156" r="1.82" fill="#000" fill-opacity=".1"/>
            <circle cx="32.156" cy="57.638" r="1.82" fill="#000" fill-opacity=".1"/>
            <path fill="#AFB9C5" d="M32.156 10.314L33.37 31.55h-2.427zM42.894 42.894L31.74 33.456l1.716-1.716z"/>
            <circle cx="32.156" cy="32.156" r="2.427" fill="#C5CFD6"/>
        </g>
        <g opacity=".346">
            <path fill="#F2F2F2" d="M341.74 337.698c-4.183-46.747-228.63-136.974-270.297-92.696-41.668 44.278-1.61 127.376 85.71 148.655 87.321 21.28 188.77-9.212 184.588-55.959z"/>
            <path fill="#DDE3E9" d="M203.015 368.072c3.747-39.713 204.796-116.364 242.12-78.749 37.325 37.616 27.877 116.736-50.34 134.814-78.218 18.078-195.528-16.352-191.78-56.065z"/>
        </g>
        <g transform="translate(355.214 205.956)">
            <path stroke="#CBCBCB" stroke-width="4.854" d="M36.403 21.228L47.67 9.957a4.85 4.85 0 0 1 6.863 0l29.993 30.005a9.708 9.708 0 0 1 2.842 6.863V245.57"/>
            <rect width="35.796" height="4.247" x="69.166" y="244.965" fill="#AFB9C5" rx="1.82"/>
            <g transform="rotate(45 14.069 35.28)">
                <path fill="#C5CFD6" d="M20.04.083c11.058 0 20.022 8.964 20.022 20.022v16.988H.018V20.105C.018 9.047 8.982.083 20.04.083z"/>
                <ellipse cx="20.149" cy="36.523" fill="#F2F2F2" rx="20.022" ry="3.944"/>
            </g>
        </g>
        <path fill="#DDE3E9" d="M75.672 310.874c1.738-.212 3.593-.138 5.21.549 3.436 1.458 4.413 5.519 4.366 8.819-.05 3.552-.805 7.432 1.896 10.294 1.241 1.315 2.785 2.322 4.004 3.662a17.314 17.314 0 0 1 3.081 4.83c1.39 3.232 2.072 7.032.801 10.422-1.118 2.984-3.933 5.678-3.325 9.072.635 3.54 4.204 6.247 6.436 8.884 2.525 2.985 4.85 6.799 5.233 10.713.366 3.75-1.267 7.544-3.772 10.379-5.006 5.665-12.531 8.442-20.118 8.425-3.222-.008-6.87-.153-9.65-1.884-.858-.535-1.312-1.136-1.822-1.97-.458-.748-1.063-1.235-1.764-1.765-1.538-1.163-2.649-2.73-3.358-4.485-2.753-6.815-.553-15.246 3.301-21.298.913-1.434 1.661-2.814 1.217-4.523-.462-1.784-1.6-3.393-2.607-4.926-.994-1.516-2.13-2.962-2.907-4.6-.814-1.717-1.043-3.515-.9-5.393.271-3.53 1.795-6.786 3.951-9.624 2.078-2.734 4.517-5.35 4.523-8.932.006-3.796-2.533-7.174-1.451-11.033.447-1.599 1.347-3.239 2.796-4.197 1.39-.919 3.225-1.22 4.86-1.42z"/>
        <path fill="#C5CFD6" d="M74.537 316.943c.032-.51.637-.816 1.113-.683.627.176.615.761.598 1.283-.05 1.604.182 3.162.567 4.718.801 3.235 2.282 6.216 3.455 9.323 1.172 3.105 1.722 6.31 1.035 9.596-.648 3.098-1.667 6.115-2.33 9.217-.585 2.734-1.207 5.617-.316 8.343.856 2.625 2.75 4.762 4.115 7.134 2.823 4.91 4.076 10.357 4.244 15.963.077 2.603.007 5.23-.596 7.783-.348 1.47-.815 3.457-2.075 4.472-.58.468-1.574.63-2.063-.064-.46-.65-.056-1.656.09-2.349.63-3 .757-6.064.606-9.11-.146-2.95-.495-5.895-1.423-8.712-.862-2.615-2.17-4.963-3.711-7.25-1.57-2.331-3.203-4.667-3.851-7.428-.66-2.805-.124-5.66.592-8.41.757-2.911 1.749-5.738 2.774-8.569 1-2.759 1.354-5.37.802-8.257-1.09-5.705-4.006-11.06-3.626-17z"/>
        <path fill="#DDE3E9" d="M121.561 317.796c2.15.653 4.287 1.707 5.82 3.359 3.26 3.513 2.26 8.823.46 12.701-1.937 4.175-4.872 8.37-3.218 13.16.761 2.202 2.04 4.196 2.761 6.415.771 2.371 1.104 4.84 1.062 7.315-.079 4.544-1.288 9.393-4.57 12.741-2.89 2.948-7.614 4.67-8.695 9-1.127 4.517 1.629 9.575 2.852 13.854 1.385 4.844 2.097 10.564.476 15.391-1.553 4.627-5.473 8.263-9.91 10.313-8.866 4.095-19.16 3.465-28.05-.502-3.774-1.685-7.975-3.755-10.321-7.248-.725-1.08-.94-2.026-1.097-3.278-.142-1.123-.594-2.014-1.136-3.004-1.19-2.176-1.664-4.608-1.568-7.052.373-9.492 7.41-18.318 15.13-23.47 1.828-1.22 3.435-2.464 3.818-4.715.4-2.351-.084-4.846-.454-7.183-.366-2.31-.933-4.61-.979-6.953-.047-2.453.634-4.699 1.796-6.846 2.182-4.033 5.69-7.091 9.72-9.326 3.882-2.152 8.126-3.977 10.025-8.21 2.014-4.487.822-9.801 4.13-13.803 1.37-1.658 3.292-3.13 5.498-3.508 2.116-.364 4.427.235 6.45.849z"/>
        <path fill="#C5CFD6" d="M117.168 325.215c.305-.586 1.172-.632 1.66-.224.64.536.32 1.223.027 1.832-.899 1.872-1.444 3.84-1.808 5.884-.757 4.251-.587 8.557-.843 12.852-.255 4.291-1.291 8.376-3.816 11.906-2.38 3.329-5.151 6.369-7.551 9.694-2.115 2.93-4.353 6.019-4.74 9.714-.372 3.558.723 7.082 1.076 10.606.73 7.294-.658 14.402-3.398 21.128-1.272 3.123-2.73 6.197-4.773 8.904-1.176 1.559-2.763 3.667-4.767 4.208-.925.25-2.171-.079-2.38-1.156-.196-1.01.802-1.991 1.335-2.735 2.309-3.221 4.063-6.785 5.481-10.47 1.374-3.57 2.509-7.24 2.899-11.064.361-3.548.06-7.015-.543-10.53-.615-3.584-1.3-7.205-.613-10.816.699-3.667 2.82-6.766 5.098-9.65 2.41-3.049 5.05-5.876 7.731-8.692 2.613-2.743 4.395-5.65 5.262-9.358 1.713-7.327 1.107-15.196 4.663-22.033z"/>
        <g>
            <path fill="#C5CFD6" d="M55.073 344.745c3.576 0 6.72 1.896 8.887 4.586 2.536 3.149 3.048 6.994 4.078 10.747.512 1.868 1.393 3.722 2.938 4.99 1.405 1.155 3.188 1.386 4.87 1.95 3.36 1.126 6.074 3.84 7.145 7.153 1.308 4.04-.077 8.114.161 12.208.22 3.76 3.926 6.106 6.91 7.908 2.94 1.778 5.59 3.442 6.476 6.904.94 3.673 1.254 7.772-.047 11.4-2.166 6.04-8.506 8.7-14.631 9.112-5.56.374-12.55-.213-16.725-4.249-2.498-2.415-3.403-5.792-3.29-9.152.07-2.09.483-4.16 1.018-6.179.38-1.43.892-2.856 1.038-4.334.388-3.935-3.248-4.69-6.343-5.77-3.934-1.373-6.687-3.966-8.602-7.579-1.783-3.364-2.531-7.14-1.462-10.843.546-1.89 1.536-3.606 2.879-5.066.59-.642 1.424-1.178 1.958-1.852.498-.63.39-1.447.218-2.185-.794-3.41-3.267-6.233-4.15-9.636-.8-3.072-.327-6.895 2.481-8.876 1.214-.857 2.71-1.227 4.193-1.237z"/>
            <path fill="#AFB9C5" d="M59.946 353.628c3.79 4.038 4.82 9.516 5.123 14.825.17 2.978-.007 6.118.868 9.006.748 2.472 2.503 4.361 4.311 6.147 3.641 3.595 7.701 7.25 8.766 12.452.625 3.053.203 6.206 1.067 9.226.785 2.744 2.167 5.44 3.848 7.759 1.354 1.866 3.117 3.295 4.597 5.035.451.53 1.098 1.313.912 2.062-.219.878-1.337 1.156-2.13 1.018-1.85-.321-3.408-2.088-4.618-3.372-1.768-1.878-3.272-3.898-4.493-6.164-1.357-2.516-2.449-5.186-2.915-8.01-.484-2.928-.243-5.98-1.35-8.791-1.86-4.73-6.373-7.52-9.636-11.207-4.065-4.593-3.459-10.31-3.042-15.96.229-3.105.456-6.611-1.113-9.446-.599-1.082-1.934-2.091-2.192-3.321-.236-1.127 1.052-2.266 1.997-1.259z"/>
        </g>
        <path fill="#89C5CC" d="M63.988 419.978c0 23.091 3.769 35.19 23.662 35.19 19.894 0 23.662-12.099 23.662-35.19H63.988z"/>
        <g>
            <g transform="translate(133.154 299.241)">
                <rect width="23.055" height="5.46" x="12.741" y="87.368" fill="#AFB9C5" rx="1.213"/>
                <path fill="#DDE3E9" d="M23.187 43.077h2.77c.315 9.355 1.774 18.254 4.379 26.696h3.944a9.404 9.404 0 0 1 0 18.808H14.258a9.404 9.404 0 1 1 0-18.808h4.55c2.605-8.442 4.065-17.341 4.379-26.696z"/>
                <path fill="#C5CFD6" d="M2.804 1.018A214.472 214.472 0 0 1 23.662 0c6.953 0 13.905.34 20.858 1.018l2.804 48.207a248.14 248.14 0 0 1-23.662 1.133A248.14 248.14 0 0 1 0 49.225L2.804 1.018z"/>
            </g>
            <path fill="#F2F2F2" d="M195.04 455.168h-12.742v-49.752H131.94v49.752H119.2V392.07h75.84v63.1z"/>
        </g>
        <g>
            <path fill="#C1DEE2" d="M373.04 284.2c5.359 12.734 14.469 21.582 19.294 34.823 2.861 7.853 4.054 16.39 4.126 25.135.04 4.75-.043 9.502-.066 14.252-.021 4.631-.147 9.234-.54 13.836-.395 4.626-.838 9.198-1.033 13.853-.152 3.627-.221 7.846-1.45 11.154-.978 2.631-3.463 3.017-4.122-.174-.367-1.774-.32-3.755-.28-5.578.052-2.34.188-4.675.257-7.013.279-9.385-.083-18.771.106-28.16.185-9.172 1.364-18.335.06-27.446-1.078-7.525-3.815-13.986-6.96-20.18-3.026-5.96-6.32-11.774-8.365-18.553-.587-1.947-1.04-3.964-1.259-6.058.096-.044.173-.008.232.108z"/>
            <path fill="#89C5CC" d="M371.579 309.323c1.061.766 1.654 1.887 2.371 2.993.892 1.375 1.941 2.617 2.833 3.993 1.86 2.869 3.493 5.914 5.188 8.899 3.218 5.666 5.661 11.705 6.871 18.26 1.255 6.793 1.593 13.805 2.12 20.7.557 7.307 1.12 14.668 1.193 22.003.033 3.287.21 6.775-.184 10.039-.245 2.031-1.162 3.763-3.23 3.747-4.39-.035-6.451-4.898-7.312-8.887-1.268-5.872-1.52-12.11-1.32-18.116.242-7.242 1.5-14.375 2.043-21.589.576-7.636.25-15.138-2.375-22.329-1.326-3.633-2.866-7.18-4.248-10.79-.589-1.536-1.07-3.115-1.866-4.546-.884-1.592-1.982-3.037-2.675-4.751l.591.374z"/>
            <path fill="#C1DEE2" d="M422.155 294.095l.404-.314c-.387 1.633-1.088 2.96-1.623 4.454-.481 1.342-.725 2.862-1.05 4.33-.76 3.446-1.64 6.815-2.359 10.29-1.423 6.88-1.154 14.29-.22 21.92.88 7.21 2.275 14.407 2.94 21.614.55 5.977.787 12.14.261 17.843-.357 3.873-1.527 8.497-4.715 8.107-1.5-.184-2.283-1.99-2.599-4.03-.506-3.275-.612-6.72-.81-9.976-.44-7.27-.529-14.517-.616-21.712-.082-6.788-.309-13.71.145-20.328.437-6.385 1.806-12.139 3.762-17.448 1.03-2.797 2.012-5.659 3.17-8.325.555-1.278 1.234-2.408 1.789-3.686.447-1.027.802-2.082 1.521-2.74zM372.935 330.367c.58-.975 1.859 2.24 2.053 2.644l-.248-.603c1.152 1.917 2.207 3.911 2.862 6.109.649 2.175 1.206 4.394 1.814 6.584 1.142 4.11 2.616 8.103 3.65 12.25 1.008 4.041 1.263 8.014 1.018 12.194-.253 4.344-.408 8.755-.112 13.097.14 2.074.815 4.005 1.277 6.002.462 1.998.826 4.023 1.373 5.997.125-.257.141.602.141.668a4.144 4.144 0 0 1-.23 1.374c-.409 1.202-1.171 2.223-2.332 2.555-2.097.6-4.044-1.308-4.72-3.323-.97-2.89-1.505-6.084-1.967-9.122-.424-2.785-.524-5.588-.398-8.412.248-5.569 1.255-11.065 1.528-16.632.297-6.061-.904-11.756-1.91-17.656-.484-2.843-.947-5.66-1.89-8.368-.38-1.096-.878-2.064-1.4-3.077-.297-.576-.897-1.604-.509-2.281z"/>
            <path fill="#69A1AC" d="M389.95 320.9c-.241 6.943-.656 13.834-1.582 20.705-.944 7.011-2.03 13.999-2.939 21.016-.885 6.831-1.812 13.776-1.688 20.702.09 5.102-.755 13.733 4.91 16.25 5.74 2.55 6.97-8.339 7.348-11.933.722-6.896.488-13.865.137-20.799-.36-7.116-.96-14.196-1.704-21.287-.827-7.875-1.476-15.787-1.997-23.685-.257-3.906-.32-7.806-.25-11.714.068-3.687-.072-7.413-1.383-10.914l-.206.15"/>
            <path fill="#89C5CC" d="M419.576 342.898c-1.032 1.503-2.072 2.992-3.047 4.585-1.744 2.85-3.321 6.018-3.795 10.092-.993 8.527-.197 17.736-.004 26.524.039 1.795-.188 3.537.52 5.246.641 1.55 1.841 2.73 2.985 2.724 2.448-.014 2.074-6.01 2.078-8.648.008-4.625-.51-9.297-.466-13.918.044-4.578.323-9.169.987-13.517.672-4.4 1.656-8.626 2.954-12.57.18-.547 1.474-4.776.252-4.047"/>
            <path fill="#69A1AC" d="M408.764 297.421c-1.61 0-1.6 8.024-1.648 9.055-.175 3.72-.134 7.44-.245 11.16-.242 8.12-.54 16.31-1.759 24.334a345.757 345.757 0 0 1-2.236 12.909c-.821 4.3-1.924 8.594-2.464 12.948-.519 4.186-.226 8.454-.154 12.66.07 4.232.199 8.472.753 12.667.137 1.035.297 2.067.469 3.096.143.858.06 1.921.301 2.736.388 1.306 2.05 1.733 3.17 1.529 3.03-.553 4.964-4.357 5.999-7.135 1.321-3.549 2.022-7.398 2.714-11.137.784-4.237 1.244-8.538 1.46-12.851.437-8.766-.125-17.541-.753-26.279-.35-4.86-.753-9.697-1.37-14.527-.615-4.808-1.404-9.596-1.917-14.419-.373-3.505-.74-7.014-.983-10.532-.057-.84-.106-6.214-1.337-6.214"/>
            <path fill="#89C5CC" d="M406.749 355.75c-.263-8.425-3.65-45.43-4.42-55.619-.192-2.55-2.047-13.167-2.288-16.058-.652.817-.597 13.536-.59 16.458.008 2.891-.35 5.734-.535 8.61-.188 2.933-4.525 40.822-5.088 43.641-1.12 5.609-1.87 11.364-2.447 17.098-.563 5.59-1.439 11.486-.685 17.104.173 1.293.447 2.566.893 3.754.482 1.284.813 2.471 1.2 3.815.622 2.163 1.749 4.062 3.48 4.956 3.549 1.831 5.455-2.315 6.42-5.925a96.602 96.602 0 0 0 2.998-17.678c.514-6.699 1.272-13.411 1.062-20.156"/>
            <g transform="translate(363.1 380.542)">
                <rect width="6.067" height="68.559" y="6.067" fill="#C5CFD6" rx="1.213"/>
                <rect width="55.211" height="55.211" x="9.094" fill="#E6E6E6" rx="1.213"/>
            </g>
        </g>
        <g fill-rule="nonzero" transform="translate(175.018 133)">
            <rect width="126.804" height="275.347" fill="#AAA" rx="18.96"/>
            <rect width="126.804" height="250.791" y="12.882" fill="#FFF" rx="18.96"/>
            <rect width="20.933" height="2.818" x="53.137" y="6.038" fill="#EAEAF3" rx="1.409"/>
            <circle cx="81.316" cy="7.649" r="2.013" fill="#EAEAF3"/>
            <path fill="#E5E5E5" d="M38.488 125.099v22.51a5.315 5.315 0 0 1-1.552 3.81 5.355 5.355 0 0 1-3.812 1.575c-2.984 0-5.88-2.409-5.88-5.384v-22.511c0-2.936 2.887-5.344 5.88-5.344 2.957.012 5.352 2.397 5.364 5.344zm2.107 30.51a5.728 5.728 0 0 0 1.687 4.07 5.77 5.77 0 0 0 4.086 1.68h3.88l.06 11.876c0 7.17 10.767 7.114 10.767 0v-11.872h7.255v11.875c0 7.133 10.833 7.151 10.833 0v-11.875h3.94a5.764 5.764 0 0 0 4.063-1.692 5.722 5.722 0 0 0 1.672-4.06v-34.876H40.595v34.874zm48.373-36.749H40.376c0-8.326 4.992-15.548 12.405-19.316l-3.715-6.861c-.544-.953.84-1.542 1.307-.737l3.785 6.92a26.44 26.44 0 0 1 21.124 0l3.763-6.898c.49-.836 1.857-.213 1.306.737l-3.714 6.84c7.339 3.767 12.33 10.999 12.33 19.315zM55.67 108.068a2.045 2.045 0 0 0-2.049-2.042c-1.1.043-1.969.943-1.969 2.04s.87 1.997 1.97 2.04a2.045 2.045 0 0 0 2.048-2.032v-.006zm22.12 0a2.015 2.015 0 0 0-2.047-1.98 2.014 2.014 0 0 0-1.988 2.04 2.015 2.015 0 0 0 2.046 1.98 2.033 2.033 0 0 0 1.99-2.034v-.006zm18.49 11.68a5.358 5.358 0 0 0-3.797 1.561 5.319 5.319 0 0 0-1.566 3.784v22.51a5.353 5.353 0 0 0 1.562 3.8 5.392 5.392 0 0 0 3.802 1.585c3.005 0 5.88-2.409 5.88-5.384v-22.511c-.01-2.985-2.897-5.338-5.88-5.338v-.006z"/>
            <path fill="#E5E5E5" d="M33.613 178.719h26.166v1.208H33.613zM69.441 178.719h17.31v1.208h-17.31zM10.668 178.719h17.31v1.208h-17.31zM96.814 178.719h17.31v1.208h-17.31z"/>
        </g>
        <g>
            <path fill="#2F2E41" fill-rule="nonzero" d="M178.641 424.832c-.552 8.349-5.53 17.298-10.026 29.687-1.78 4.904-8.181 20.608-6.914 23.427-3.647-1.388-7.38-2.207-11.23-1.567 1.465-2.986 3.006-11.278 3.072-14.603a85.225 85.225 0 0 1 1.453-13.45c1.29-6.753 1.823-8.481 4.896-14.631.623-1.297 1.587-3.165 1.809-4.586.399-3.161-.042-3.333-1.809-9.13-1.178-3.866-2.883-9.481-5.115-16.847l2.215-1.326c-2.301 15.144-3.712 24.245-4.231 27.303-.78 4.586-1.643 9.072-2.29 10.648-.421.943-4.385 26.438-2.356 36.167a18.902 18.902 0 0 0-9.83 2.239c-2.452-6.919-4.014-16.745-5.182-24.031a71.143 71.143 0 0 1 .793-25.895c.575-2.84.79-5.74.64-8.633a45.112 45.112 0 0 0-.108-1.693c-.43-5.175-1.707-10.255-2.977-15.3a75971.723 75971.723 0 0 1-5.206-20.66c-.677-2.69-1.362-5.44-1.149-8.209.15-1.518.468-3.015.95-4.462a49.88 49.88 0 0 1 6.752-13.81c11.75.66 23.643-.44 35.377-1.342.57-.113 1.996-.038 2.028.53 1.47 8.326 4.25 24.232 5.719 32.558 1.469 8.326 3.272 29.268 2.72 37.616z"/>
            <g fill-rule="nonzero">
                <path fill="#EFB7B9" d="M164.581 260.85c3.516 6.553 2.635 20.795-3.7 23.098-1.945.707-4.555.363-7.21-.83l2.33 16.48h-14.562l4.792-22.335c-2.705-3.382-4.504-7.799-4.15-12.84.91-12.983 18.985-10.127 22.5-3.574z"/>
                <path fill="#2F2E41" d="M165.455 260.886c-2.785.523-8.394 3.182-12.865 6.996a3.782 3.782 0 0 0-1.78-.44c-2.062 0-3.734 1.63-3.734 3.64 0 .821.278 1.578.748 2.187-.885 1.459-1.489 2.991-1.687 4.567-3.068 0-14.264-11.607-3.11-22.528 11.153-10.921 27.271 4.669 22.428 5.578z"/>
            </g>
            <path fill="#D4D2D2" d="M148.1 478.624c-.958 2.356-1.437 4.07-1.437 5.138 0 1.094.182 2.69.546 4.79h34.22c.89-2.94.376-4.527-1.54-4.761a189.523 189.523 0 0 1-4.774-.635l-16.398-7.31a.607.607 0 0 0-.161-.047l-2.556-.367h-3.737c-1.082 0-2.409.96-3.978 2.88a1.213 1.213 0 0 0-.185.312z"/>
            <path fill="#EFB7B9" fill-rule="nonzero" d="M111.848 336.373l12.433 2.466c-12.503 23.302-19.208 35.651-20.116 37.05-2.041 3.145-.136 8.91.567 11.946-4.414 1.028-2.673-5.616-8.259-4.229-5.098 1.267-9.42 4.516-14.174.134-.585-.54-1.013-2.223.98-3.087 4.965-2.151 12.3-6.18 13.489-7.745 1.622-2.133 6.649-14.312 15.08-36.535zm122.97-18.654c-1.954 2.855-3.882 5.947-3.101 6.947.78 1 3.044-.104 3.937 1.524.596 1.084-3.218 2.382-11.442 3.893l-16.464 12.623-7.02-8.993 21.984-9.654c3.851-3.838 7.57-6.755 11.156-8.75 1.073-.342 2.905-.445.95 2.41z"/>
            <path fill="#DB2721" d="M154.033 286.622l2.959 2.514c11.427 11.085 18.677 38.251 26.292 41.776 7.2 3.333 21.147-.607 33.28-4.961l3.715 8.3c-13.37 10.66-46.86 17.29-49.28 10.66-3.107-8.51-17.518-39.686-16.966-58.29z"/>
            <path fill="#DDE3E9" d="M135.202 355.788c15.655 3.134 27.707 2.565 36.154-1.706 2.044-1.033 2.044-2.927 1.73-6.665-1.577-18.797-9.596-56.374-19.053-60.795h-1.738c-11.076 17.812-14.906 39.743-17.093 69.166z"/>
            <path fill="#FF4133" d="M153.848 286.622c13.943 40.976 18.219 68.278 12.826 81.907h-41.786c.661-9.973 2.78-20.519 5.684-30.802-9.463 17.07-17.417 29.36-23.863 36.869l-9.73-1.906c17.222-44.723 24.951-61.89 54.605-86.068z"/>
            <path fill="#B5352B" d="M127.773 349.412c.622-3.228 2.065-6.917 4.33-11.068a68.72 68.72 0 0 1 8.124-11.756 2114.664 2114.664 0 0 1-8.598 9.213c-1.319 1.397-2.604 5.933-3.856 13.61z"/>
            <path fill="#E4E4E4" d="M136.258 478.534c-.983 2.403-1.474 4.146-1.474 5.228 0 1.094.182 2.69.547 4.79h34.22c.889-2.94.376-4.527-1.54-4.761a189.523 189.523 0 0 1-4.775-.635l-16.036-7.664a.607.607 0 0 0-.262-.06h-8.229c-1.094 0-1.894.982-2.4 2.945a1.213 1.213 0 0 1-.051.157z"/>
            <path fill="#2F2E41" fill-rule="nonzero" d="M165.016 264.671c0-2.77-.574-5.28-1.973-7.381-1.502-2.258-3.444-4.296-5.815-4.863-1.926-.46-3.923.095-5.882-.09-1.736-.164-3.4-.906-5.127-1.172a13.67 13.67 0 0 0-4.687.212c-1.469.255-2.905.733-4.272 1.422-5.204 2.748-8.252 9.535-8.96 16.266-.707 6.73.533 13.512 1.766 20.135l1.115 5.986c1.16 6.23 2.324 12.494 2.635 18.866.31 6.371-.269 12.912-2.468 18.732 12.756-5.209 19.5-32.46 20.168-34.586.754-2.4 1.263-17.22 2.38-18.612.993-1.238 2.403-1.833 3.683-2.612 2.012-1.231 3.77-2.98 5.146-5.119 1.377-2.139 2.291-4.413 2.291-7.184z"/>
            <path fill="#000" fill-rule="nonzero" d="M161.331 372.892c-.706 6.885-1.512 13.016-2.418 18.395-.905 5.378-1.824 10.81-2.757 16.295 2.073-5.508 3.628-11.745 4.666-18.713 1.037-6.967 1.207-12.293.51-15.977z" opacity=".1"/>
        </g>
        <g>
            <g fill-rule="nonzero">
                <path fill="#A1616A" d="M313.87 279.3c-3.516 6.554-4.16 19.941 1.445 24.348 2.098 1.649 5.7.974 9.34-1.197l-2.204 15.598h14.561l-4.83-22.51c2.711-3.672 4.508-8.12 4.189-12.664-.911-12.984-18.986-10.128-22.501-3.574z"/>
                <path fill="#2F2E41" d="M333.118 297.608c1.828-8.131 7.034-13.674 6.239-17.308-.53-2.422-1.943-3.929-4.239-4.52-1.187-4.803-5.016-6.846-11.488-6.128-9.706 1.076-15.631 5.107-13.073 13.977 2.352 0 5.192-.85 9.118.607 1.245.462 2.136 1.896 2.673 4.301h1.774c1.722-2.854 3.42-3.903 5.093-3.147 1.674.757 2.054 2.595 1.142 5.514l.873 6.704h1.888z"/>
            </g>
            <path fill="#C5CFD6" d="M363.33 393.407h-46.872l-6.142 75.233h69.773z"/>
            <path fill="#000" fill-opacity=".1" d="M363.33 393.407h-14.416l-8.628 75.233h39.803z"/>
            <path fill="#A1616A" fill-rule="nonzero" d="M263.02 381.001l-.175-.102c-5.015-2.81-13.206 1.006-13.2 5.248.017 12.84 11.735 73.36 12.347 77.186.612 3.825 7.166 4.836 7.548.012.607-7.675 1.736-34.246.607-46.544a642.27 642.27 0 0 0-1.462-14.224c6.149 11.104 15.66 27.003 28.53 47.697l6.988-3.192c-5.487-18.078-9.986-30.84-13.498-38.288-6.012-12.75-11.65-23.67-14.023-27.517-3.732-6.05-10.23-3.939-13.662-.276z"/>
            <path fill="#252439" fill-rule="nonzero" d="M303.703 437.043l-23.982-56.812c-5.745-9.242-21.853 1.88-19.894 7.24 4.448 12.17 27.07 51.567 28.395 55.193l15.481-5.621z"/>
            <path fill="#020F2F" fill-rule="nonzero" d="M305.035 443.5c1.494 1.23 2.466 2.233 2.915 3.013.547.947 1.188 2.42 1.922 4.42l-29.636 17.11c-2.24-2.1-2.589-3.732-1.047-4.893a189.519 189.519 0 0 0 3.818-2.937l10.229-14.093a.607.607 0 0 1 .861-.124l2.125 1.636c1.95-.17 3.405-.532 4.366-1.087.78-.45 1.675-1.387 2.686-2.811a1.213 1.213 0 0 1 1.761-.235zM271.075 460.266c.679 1.812 1.018 3.167 1.018 4.067 0 1.094-.182 2.69-.547 4.79h-34.22c-.89-2.94-.376-4.527 1.54-4.762 1.916-.234 3.508-.446 4.775-.635l15.905-7.09a.607.607 0 0 1 .808.323l1.022 2.48c1.774.827 3.215 1.24 4.324 1.24.901 0 2.145-.363 3.733-1.09a1.213 1.213 0 0 1 1.642.677z"/>
            <path fill="#2F2E41" fill-rule="nonzero" d="M247.964 390.512c0 16.119 7.654 53.717 7.66 57.266l16.469.013c-2.41-33.549-3.265-50.504-2.564-50.865 1.051-.543 43.108 4.199 55.72 4.199 18.19 0 25.714-11.47 26.324-32.718h-36.03c-7.337.785-45.603 8.504-59.815 11.157-6.084 1.136-7.764 6.508-7.764 10.948z"/>
            <g>
                <path fill="#A1616A" fill-rule="nonzero" d="M364.734 361.139l-12.679.05c7.829 25.272 12.055 38.68 12.68 40.227 1.403 3.48-1.568 8.778-2.838 11.626 4.138 1.851 3.697-5.006 8.917-2.577 4.764 2.216 8.388 6.233 13.893 2.836.677-.418 1.418-1.99-.374-3.218-4.464-3.061-10.897-8.419-11.766-10.182-1.185-2.405-3.796-15.326-7.833-38.762zm-74.307-.49l-19.353 14.21c-5.249 1.417-9.634 3.18-13.156 5.287-.832.758-1.837 2.294 1.613 2.028 3.45-.265 7.09-.389 7.567.788.476 1.177-1.612 2.584-.65 4.172.642 1.058 3.673-1.596 9.093-7.963l19.165-7.947-4.279-10.576z"/>
                <path fill="#E87613" d="M328.703 307.937l-5.246-.9c-19.466 16.815-27.461 49.12-51.321 66.233l5.743 7.118c32.046-17.441 44.572-42.317 50.824-72.451z"/>
                <path fill="#DDE3E9" d="M351.573 373.868h-46.42c-2.122 0-1.722-3.063-1.416-4.609 3.54-17.838 16.636-56.937 20.032-61.64l10.712-2.917c11.075 17.812 14.905 39.743 17.092 69.166z"/>
                <path fill="#FF9B21" d="M335.493 304.702l-.016.015-5.425.31c-7.869 32.603-12.973 56.587-15.313 71.95l-.074.487 36.908 5.347c.092-4.685.04-9.246-.146-13.677 4.127 11.705 7.936 21.777 11.426 30.216h9.956c-9.83-57.495-22.268-89.044-37.316-94.648l.312.12-.067-.12-.213.012-.032-.012z"/>
                <path fill="#000" fill-opacity=".1" d="M340.554 381.474l11.02 1.337-.001-13.716a1141.213 1141.213 0 0 1-3.696-10.604c-2.118 10.683-4.56 18.344-7.323 22.983z"/>
            </g>
        </g>
    </g>
</svg>
