<svg xmlns="http://www.w3.org/2000/svg" width="470" height="630" viewBox="0 0 470 630">
    <g fill="none" fill-rule="evenodd">
        <path fill="#FFF" fill-opacity=".01" d="M0 0h470v630H0z"/>
        <g opacity=".562">
            <path fill="#F2F2F2" d="M339.55 291.4c-4.043-45.183-220.984-132.392-261.258-89.595-40.274 42.797-1.555 123.116 82.845 143.683 84.4 20.568 182.456-8.904 178.413-54.088z"/>
            <path fill="#DDE3E9" d="M205.464 320.759c3.621-38.385 197.947-112.473 234.023-76.115C475.563 281 466.432 357.476 390.83 374.949c-75.602 17.473-188.988-15.805-185.366-54.19z"/>
        </g>
        <g transform="translate(368.889 206.889)">
            <path stroke="#CBCBCB" stroke-width="4.645" d="M35.068 20.27L45.851 9.482a4.642 4.642 0 0 1 6.567 0l28.703 28.714a9.29 9.29 0 0 1 2.72 6.568v190.198"/>
            <rect width="34.257" height="4.064" x="66.422" y="234.382" fill="#AFB9C5" rx="1.742"/>
            <g transform="rotate(45 13.579 33.995)">
                <path fill="#C5CFD6" d="M19.178.033c10.582 0 19.16 8.579 19.16 19.161v16.257H.019V19.194C.018 8.612 8.596.034 19.178.034z"/>
                <ellipse cx="19.282" cy="34.907" fill="#F2F2F2" rx="19.161" ry="3.774"/>
            </g>
        </g>
        <g transform="matrix(-1 0 0 1 151.111 183.556)">
            <path stroke="#CBCBCB" stroke-width="4.645" d="M35.068 20.27L45.851 9.482a4.642 4.642 0 0 1 6.567 0l28.703 28.714a9.29 9.29 0 0 1 2.72 6.568v190.198"/>
            <rect width="34.257" height="4.064" x="66.422" y="234.382" fill="#AFB9C5" rx="1.742"/>
            <g transform="rotate(45 13.579 33.995)">
                <path fill="#C5CFD6" d="M19.178.033c10.582 0 19.16 8.579 19.16 19.161v16.257H.019V19.194C.018 8.612 8.596.034 19.178.034z"/>
                <ellipse cx="19.282" cy="34.907" fill="#F2F2F2" rx="19.161" ry="3.774"/>
            </g>
        </g>
        <path fill="#DDE3E9" d="M96.753 286.688c1.137-.14 2.35-.09 3.407.359 2.248.954 2.887 3.61 2.856 5.768-.033 2.323-.526 4.86 1.24 6.733.812.86 1.822 1.519 2.62 2.395.851.937 1.52 2.008 2.015 3.16.908 2.113 1.354 4.598.523 6.816-.731 1.952-2.572 3.714-2.174 5.933.415 2.316 2.75 4.086 4.209 5.811 1.652 1.952 3.173 4.447 3.423 7.007.24 2.453-.829 4.934-2.467 6.788-3.275 3.705-8.196 5.522-13.159 5.51-2.107-.004-4.492-.1-6.31-1.232-.563-.35-.86-.742-1.193-1.288-.3-.49-.695-.808-1.153-1.154-1.007-.76-1.733-1.786-2.197-2.934-1.8-4.457-.362-9.972 2.16-13.93.596-.938 1.085-1.84.795-2.958-.303-1.167-1.047-2.22-1.705-3.222-.65-.992-1.393-1.937-1.901-3.01-.533-1.122-.683-2.298-.589-3.526.177-2.309 1.174-4.439 2.584-6.295 1.359-1.788 2.954-3.499 2.958-5.842.004-2.483-1.656-4.692-.949-7.216.293-1.046.881-2.118 1.829-2.745.909-.601 2.11-.798 3.178-.928z"/>
        <path fill="#C5CFD6" d="M96.01 290.657c.022-.333.417-.533.729-.446.41.114.402.497.391.839-.033 1.049.119 2.068.37 3.086.525 2.115 1.493 4.065 2.26 6.097.767 2.031 1.127 4.128.677 6.277-.424 2.026-1.09 4-1.524 6.028-.382 1.788-.789 3.674-.207 5.457.56 1.717 1.8 3.115 2.692 4.666 1.847 3.212 2.666 6.774 2.776 10.44.05 1.703.005 3.421-.39 5.091-.227.962-.533 2.261-1.357 2.925-.38.306-1.03.412-1.35-.042-.3-.425-.036-1.083.06-1.536.412-1.962.495-3.967.396-5.959-.096-1.929-.324-3.855-.93-5.698-.564-1.71-1.42-3.246-2.428-4.742-1.027-1.524-2.095-3.052-2.519-4.858-.431-1.835-.08-3.702.387-5.501.496-1.904 1.144-3.752 1.815-5.604.654-1.805.885-3.512.524-5.4-.712-3.732-2.62-7.234-2.371-11.12z"/>
        <path fill="#DDE3E9" d="M126.767 291.215c1.407.427 2.804 1.116 3.807 2.197 2.132 2.298 1.478 5.771.3 8.308-1.266 2.73-3.186 5.474-2.104 8.607.498 1.44 1.334 2.744 1.806 4.195.504 1.551.722 3.166.694 4.785-.051 2.972-.842 6.144-2.989 8.333-1.89 1.928-4.98 3.055-5.687 5.887-.737 2.954 1.065 6.262 1.866 9.061.906 3.168 1.37 6.91.311 10.067-1.016 3.026-3.58 5.404-6.482 6.745-5.799 2.678-12.531 2.266-18.346-.329-2.469-1.102-5.216-2.455-6.75-4.74-.475-.706-.615-1.325-.718-2.144-.093-.735-.389-1.317-.743-1.965-.778-1.423-1.088-3.014-1.026-4.612.244-6.208 4.847-11.981 9.896-15.351 1.196-.798 2.247-1.611 2.497-3.084.262-1.538-.055-3.17-.297-4.698-.239-1.51-.61-3.015-.64-4.547-.03-1.605.415-3.074 1.175-4.478 1.427-2.638 3.722-4.638 6.358-6.1 2.538-1.408 5.314-2.6 6.556-5.37 1.317-2.934.538-6.41 2.702-9.028.896-1.084 2.153-2.046 3.596-2.294 1.383-.238 2.895.154 4.218.555z"/>
        <path fill="#C5CFD6" d="M123.894 296.068c.2-.384.767-.413 1.085-.147.42.35.21.8.018 1.198-.588 1.225-.944 2.512-1.182 3.849-.496 2.78-.384 5.597-.552 8.406-.167 2.806-.844 5.478-2.495 7.787-1.557 2.177-3.37 4.165-4.94 6.34-1.383 1.917-2.846 3.937-3.1 6.354-.243 2.327.473 4.632.704 6.937.478 4.77-.43 9.42-2.222 13.819-.832 2.042-1.786 4.053-3.122 5.823-.77 1.02-1.807 2.399-3.118 2.753-.605.163-1.42-.052-1.556-.756-.129-.661.524-1.303.873-1.79 1.51-2.106 2.657-4.437 3.584-6.848.899-2.335 1.641-4.735 1.896-7.236.237-2.32.04-4.588-.355-6.888-.402-2.343-.85-4.712-.4-7.073.456-2.399 1.844-4.426 3.334-6.311 1.576-1.995 3.302-3.844 5.056-5.686 1.71-1.794 2.875-3.695 3.442-6.12 1.12-4.793.724-9.94 3.05-14.411z"/>
        <g>
            <path fill="#C5CFD6" d="M83.28 308.841c2.34 0 4.396 1.24 5.813 3 1.658 2.06 1.993 4.574 2.667 7.03.335 1.22.911 2.433 1.922 3.263.918.755 2.085.906 3.185 1.275 2.198.737 3.972 2.512 4.673 4.678.855 2.643-.05 5.308.106 7.985.143 2.46 2.568 3.994 4.518 5.173 1.924 1.162 3.657 2.25 4.237 4.515.614 2.402.82 5.083-.03 7.456-1.418 3.95-5.564 5.69-9.57 5.96-3.637.245-8.209-.14-10.94-2.779-1.634-1.58-2.225-3.788-2.152-5.986.046-1.366.316-2.72.666-4.04.249-.937.584-1.869.68-2.836.253-2.573-2.125-3.068-4.15-3.774-2.572-.898-4.373-2.594-5.626-4.957-1.166-2.2-1.655-4.67-.956-7.092a8.28 8.28 0 0 1 1.883-3.313c.387-.42.932-.77 1.28-1.212.326-.412.255-.946.143-1.429-.519-2.23-2.136-4.076-2.715-6.302-.522-2.01-.213-4.51 1.624-5.806.793-.56 1.772-.802 2.742-.809z"/>
            <path fill="#AFB9C5" d="M86.467 314.652c2.48 2.64 3.153 6.223 3.351 9.696.11 1.947-.004 4.001.568 5.89.49 1.617 1.637 2.853 2.82 4.02 2.381 2.352 5.037 4.742 5.733 8.145.409 1.997.133 4.06.698 6.034.513 1.795 1.417 3.559 2.517 5.075.885 1.22 2.038 2.155 3.006 3.293.295.347.718.859.596 1.35-.142.573-.874.755-1.393.665-1.21-.21-2.228-1.366-3.02-2.206-1.156-1.228-2.14-2.55-2.939-4.031-.887-1.646-1.601-3.393-1.906-5.239-.317-1.916-.16-3.912-.882-5.75-1.217-3.094-4.17-4.92-6.303-7.33-2.66-3.004-2.263-6.743-1.99-10.439.15-2.03.298-4.324-.728-6.178-.392-.708-1.265-1.368-1.434-2.172-.154-.737.688-1.482 1.306-.823z"/>
        </g>
        <path fill="#89C5CC" d="M89.111 358.048c0 15.103 2.465 23.016 15.477 23.016 13.011 0 15.476-7.913 15.476-23.016H89.11z"/>
        <g>
            <g transform="translate(136.127 278.444)">
                <rect width="15.079" height="3.571" x="8.333" y="57.143" fill="#AFB9C5" rx=".794"/>
                <path fill="#DDE3E9" d="M15.166 28.175h1.812c.205 6.118 1.16 11.939 2.863 17.46h2.58a6.15 6.15 0 1 1 0 12.302H9.325a6.15 6.15 0 0 1 0-12.302h2.977c1.703-5.521 2.658-11.342 2.864-17.46z"/>
                <path fill="#C5CFD6" d="M1.834.666a140.277 140.277 0 0 1 27.284 0l1.835 31.53a162.297 162.297 0 0 1-30.953 0L1.834.666z"/>
            </g>
            <path fill="#F2F2F2" d="M176.604 380.43h-8.334v-32.54h-32.937v32.54H127v-41.27h49.604v41.27z"/>
        </g>
        <g>
            <path fill="#C1DEE2" d="M393.333 297.982c3.954 9.396 10.676 15.924 14.236 25.694 2.111 5.794 2.991 12.093 3.044 18.545.03 3.504-.032 7.011-.048 10.515-.016 3.418-.109 6.814-.399 10.21-.291 3.413-.618 6.786-.762 10.22-.112 2.676-.163 5.79-1.07 8.23-.722 1.942-2.555 2.226-3.042-.128-.27-1.31-.236-2.77-.206-4.116.038-1.726.139-3.449.19-5.174.206-6.925-.061-13.85.078-20.777.136-6.768 1.006-13.528.044-20.251-.795-5.552-2.814-10.32-5.135-14.89-2.233-4.396-4.663-8.687-6.172-13.688-.433-1.437-.768-2.925-.929-4.47.07-.032.128-.006.171.08z"/>
            <path fill="#89C5CC" d="M392.255 316.519c.783.565 1.22 1.392 1.75 2.208.658 1.015 1.432 1.931 2.09 2.946 1.372 2.117 2.577 4.364 3.828 6.566 2.374 4.18 4.177 8.637 5.07 13.473.925 5.012 1.175 10.186 1.563 15.273.412 5.391.826 10.822.881 16.235.024 2.425.155 4.999-.136 7.407-.18 1.499-.857 2.776-2.382 2.764-3.24-.026-4.76-3.614-5.396-6.556-.935-4.333-1.122-8.936-.974-13.367.179-5.343 1.106-10.606 1.508-15.929.425-5.634.185-11.17-1.753-16.475-.978-2.68-2.114-5.298-3.134-7.96-.434-1.135-.79-2.3-1.377-3.356-.652-1.174-1.462-2.24-1.973-3.505l.435.276z"/>
            <path fill="#C1DEE2" d="M429.572 305.283l.298-.232c-.286 1.206-.803 2.185-1.198 3.287-.355.99-.535 2.111-.774 3.194-.561 2.543-1.21 5.029-1.74 7.594-1.05 5.075-.852 10.542-.164 16.173.65 5.318 1.68 10.629 2.17 15.947.406 4.41.58 8.957.193 13.165-.264 2.857-1.127 6.27-3.479 5.981-1.107-.136-1.685-1.469-1.918-2.973-.374-2.417-.452-4.958-.597-7.36-.326-5.364-.39-10.712-.455-16.02-.06-5.009-.228-10.117.107-14.999.323-4.711 1.332-8.956 2.776-12.873.76-2.064 1.484-4.176 2.339-6.143.41-.943.91-1.777 1.32-2.72.33-.758.591-1.536 1.122-2.02zM393.256 332.046c.428-.72 1.371 1.652 1.515 1.95l-.183-.444c.85 1.414 1.628 2.886 2.111 4.507.479 1.605.89 3.242 1.34 4.858.842 3.033 1.929 5.979 2.692 9.039.744 2.981.931 5.912.751 8.996-.187 3.206-.301 6.46-.083 9.664.104 1.53.601 2.955.942 4.428.341 1.475.61 2.969 1.013 4.425.093-.19.105.445.105.493a3.057 3.057 0 0 1-.17 1.014c-.302.887-.864 1.64-1.72 1.885-1.548.442-2.984-.966-3.483-2.452-.716-2.132-1.11-4.489-1.452-6.73-.313-2.056-.387-4.123-.294-6.207.183-4.109.927-8.164 1.128-12.272.22-4.472-.667-8.674-1.409-13.027-.357-2.097-.699-4.175-1.394-6.174-.282-.809-.649-1.523-1.034-2.27-.219-.425-.661-1.184-.375-1.683z"/>
            <path fill="#69A1AC" d="M405.81 325.06c-.178 5.124-.484 10.208-1.167 15.277-.697 5.174-1.498 10.33-2.168 15.507-.653 5.04-1.338 10.164-1.246 15.274.067 3.765-.557 10.133 3.623 11.99 4.235 1.882 5.143-6.153 5.42-8.805.534-5.088.361-10.23.103-15.346-.266-5.25-.71-10.474-1.258-15.706a452.745 452.745 0 0 1-1.473-17.475c-.19-2.882-.237-5.76-.185-8.643.05-2.72-.053-5.47-1.02-8.053l-.152.11"/>
            <path fill="#89C5CC" d="M427.669 341.291c-.761 1.11-1.53 2.208-2.248 3.383-1.287 2.103-2.45 4.44-2.8 7.447-.733 6.291-.145 13.086-.004 19.57.03 1.325-.138 2.61.384 3.87.474 1.144 1.359 2.015 2.203 2.01 1.806-.01 1.53-4.433 1.533-6.38.006-3.413-.377-6.86-.344-10.27.033-3.377.238-6.764.728-9.972.496-3.247 1.222-6.365 2.18-9.275.133-.404 1.088-3.524.186-2.986"/>
            <path fill="#69A1AC" d="M419.692 307.737c-1.188 0-1.18 5.921-1.217 6.681-.129 2.745-.098 5.49-.18 8.235-.179 5.99-.398 12.033-1.298 17.954a255.11 255.11 0 0 1-1.65 9.524c-.606 3.173-1.42 6.341-1.818 9.554-.382 3.088-.166 6.237-.114 9.341.053 3.122.147 6.25.556 9.346.101.764.22 1.525.346 2.284.106.633.044 1.418.223 2.02.286.962 1.512 1.278 2.338 1.127 2.235-.408 3.663-3.214 4.426-5.265.975-2.618 1.493-5.458 2.003-8.217.579-3.125.918-6.299 1.077-9.481.323-6.468-.092-12.943-.555-19.39-.258-3.585-.556-7.155-1.011-10.718-.454-3.548-1.036-7.08-1.415-10.639-.275-2.586-.546-5.175-.725-7.771-.042-.62-.078-4.585-.986-4.585"/>
            <path fill="#89C5CC" d="M418.205 350.774c-.194-6.216-2.693-33.52-3.261-41.037-.142-1.881-1.511-9.715-1.689-11.848-.48.603-.44 9.987-.434 12.143.005 2.133-.26 4.23-.396 6.352-.138 2.165-3.338 30.12-3.754 32.2-.826 4.139-1.379 8.385-1.805 12.616-.416 4.123-1.062 8.474-.506 12.62.128.954.33 1.893.66 2.77.355.947.599 1.823.885 2.814.459 1.596 1.29 2.998 2.567 3.657 2.619 1.351 4.025-1.708 4.738-4.372a71.276 71.276 0 0 0 2.211-13.044c.38-4.942.939-9.894.784-14.87"/>
            <g transform="translate(386 369.066)">
                <rect width="40.737" height="40.737" x="4.477" fill="#ECECEC" rx=".895"/>
                <rect width="4.477" height="50.585" y="4.477" fill="#C5CFD6" rx=".895"/>
                <rect width="4.477" height="50.585" x="22.383" y="4.477" fill="#C5CFD6" rx=".895"/>
                <rect width="4.477" height="50.585" x="45.213" y="4.477" fill="#C5CFD6" rx=".895"/>
            </g>
        </g>
        <g transform="translate(202.444 175)">
            <rect width="122.803" height="233.248" x=".718" fill="#DDE3E9" rx="6.179"/>
            <circle cx="61.733" cy="206.988" r="11.585" fill="#FFF"/>
            <g fill="#FFF" transform="translate(50.148 12.358)">
                <circle cx="1.545" cy="1.545" r="1.545"/>
                <rect width="16.219" height="3.089" x="6.951" rx="1.545"/>
            </g>
            <g transform="translate(11.53 21.626)">
                <rect width="101.177" height="41.707" fill="#FFF" rx="3.089"/>
                <g fill="#DDE3E9" transform="translate(6.951 12.512)">
                    <rect width="56.381" height="6.256" rx="2.317"/>
                    <rect width="37.845" height="6.256" y="10.427" rx="2.317"/>
                </g>
                <g transform="translate(84.958 15.447)">
                    <circle cx="5.406" cy="5.406" r="5.406" fill="#DDE3E9"/>
                    <circle cx="5.406" cy="5.406" r="2.317" fill="#F2F2F2"/>
                </g>
            </g>
            <g transform="translate(11.53 69.511)">
                <rect width="101.177" height="32.438" fill="#FFF" rx="3.089"/>
                <g fill="#DDE3E9" transform="translate(30.121 9.732)">
                    <rect width="56.381" height="4.866" rx="2.317"/>
                    <rect width="37.845" height="4.866" y="8.11" rx="2.317"/>
                </g>
                <circle cx="16.219" cy="16.219" r="9.268" fill="#C5CFD6"/>
            </g>
            <g transform="translate(11.53 108.128)">
                <rect width="101.177" height="32.438" fill="#FFF" rx="3.089"/>
                <g transform="translate(6.951 9.732)">
                    <rect width="56.381" height="4.866" fill="#DDE3E9" rx="2.317"/>
                    <rect width="37.845" height="4.866" y="8.11" fill="#AFB9C5" rx="2.317"/>
                </g>
                <g transform="translate(84.958 10.813)">
                    <circle cx="5.406" cy="5.406" r="5.406" fill="#DDE3E9"/>
                    <circle cx="5.406" cy="5.406" r="2.317" fill="#F2F2F2"/>
                </g>
            </g>
            <g transform="translate(11.53 146.746)">
                <rect width="101.177" height="32.438" fill="#FFF" rx="3.089"/>
                <g fill="#DDE3E9" transform="translate(30.121 9.732)">
                    <rect width="56.381" height="4.866" rx="2.317"/>
                    <rect width="37.845" height="4.866" y="8.11" rx="2.317"/>
                </g>
                <circle cx="16.219" cy="16.219" r="9.268" fill="#C5CFD6"/>
            </g>
        </g>
        <g>
            <path fill="#191847" d="M370.617 288.438c-5.13 0-6.996-6.142-9.911-9.513-2.086-2.411-5.645-1.692-6.698-5.068-2.65-8.49 4.441-14.466 13.691-14.466s15.487 5.24 16.834 13.119c1.347 7.878-4.666 15.928-13.916 15.928z"/>
            <path fill="#D4A181" d="M356.637 271.572c-2.602 4.848-2.292 17.147 1.07 18.014 1.34.346 4.197-.501 7.104-2.254l-1.825 12.91h10.773l-3.708-17.289c2.068-2.427 3.468-5.403 3.234-8.737-.674-9.606-14.047-7.493-16.648-2.644z"/>
            <path fill="#191847" d="M355.99 271.599c2.061.387 6.211 2.354 9.52 5.176a2.79 2.79 0 0 1 1.315-.325c1.527 0 2.764 1.205 2.764 2.693 0 .607-.206 1.168-.554 1.618.655 1.08 1.102 2.213 1.248 3.379 2.27 0 10.554-8.588 2.302-16.669-8.253-8.08-20.178 3.455-16.595 4.128z"/>
            <g>
                <path fill="#BA8B72" d="M377.54 337.556l-16.892 55.225-8.183 46.966h-6.416l8.647-102.191z"/>
                <path fill="#D4A181" d="M383.584 337.556c-1.147 30.321.203 45.962.46 48.717.256 2.755 3.773 20.617 12.097 54.399l-6.836-2.348c-13.157-30.983-17.64-47.085-19.149-51.153-1.509-4.069-5.516-20.607-12.023-49.615h25.45z"/>
                <path fill="#E4E4E4" d="M396.09 438.29c.502 1.34.753 2.344.753 3.01 0 .809-.134 1.99-.404 3.543H371.12c-.658-2.175-.278-3.35 1.14-3.523 1.417-.173 2.595-.33 3.532-.47l11.768-5.246a.449.449 0 0 1 .598.239l.756 1.835c1.313.612 2.379.918 3.2.918.666 0 1.587-.269 2.761-.807a.898.898 0 0 1 1.215.5zM353.893 438.29c.503 1.34.754 2.344.754 3.01 0 .809-.135 1.99-.405 3.543h-25.319c-.658-2.175-.278-3.35 1.14-3.523 1.417-.173 2.595-.33 3.532-.47l11.768-5.246a.449.449 0 0 1 .598.239l.757 1.835c1.312.612 2.378.918 3.199.918.666 0 1.587-.269 2.761-.807a.898.898 0 0 1 1.215.5z"/>
                <path fill="#AFB9C5" d="M379.785 337.556l-7.182 28.136h-21.938l3.27-28.136z"/>
                <path fill="#C5CFD6" d="M383.825 337.556c2.364 7.083 2.812 16.462 1.347 28.136h-22.387l-6.156-28.136h27.196z"/>
            </g>
            <g>
                <path fill="#D4A181" d="M397.63 320.834l-9.83.037c7.487 24.256 11.462 36.955 11.923 38.1 1.039 2.574-1.16 6.494-2.1 8.601 3.062 1.37 2.736-3.703 6.598-1.907 3.525 1.64 6.207 4.612 10.28 2.099.5-.309 1.05-1.472-.277-2.381-3.303-2.265-8.062-6.229-8.705-7.533-.877-1.78-3.507-14.118-7.888-37.016zm-62.183 11.227l-12.716 12.405c-3.7 1.579-6.732 3.321-9.095 5.229-.531.64-1.11 1.869 1.39 1.32 2.5-.55 5.156-1.016 5.626-.203.47.813-.915 2.06-.047 3.124.58.71 2.527-1.548 5.842-6.77l13.224-7.797-4.224-7.308z"/>
                <path fill="#191847" d="M367.678 292.95l-3.882-.667c-6.115 21.616-37.533 36.35-39.462 44.43-.707 2.963 1.426 4.461.324 5.364l5.046 3.693c.854-.996 2.677.827 6.485-.449 3.807-1.275 31.489-26.777 31.489-52.372z"/>
                <path fill="#2F3676" d="M374.581 288.436l-12.09.846c-.99.069-1.736.927-1.666 1.916l.323 4.612c.452 28.628-16.096 35.928-12.41 47.41 3.042 9.48 32.168 19.67 37.208 10.378 2.04-3.761 2.965-8.31 3.07-13.257 1.288 3.8 2.307 7.071 3.057 9.814 1.292 4.731 6.304 5.484 6.304 7.306l6.604-1.822c-.448-2.477 2.665-3.682 1.83-9.215-3.74-24.786-13.787-42.754-30.143-53.901l-.17-2.42a1.796 1.796 0 0 0-1.917-1.667z"/>
            </g>
            <g transform="matrix(-1 0 0 1 240.556 238.778)">
                <path fill="#A1616A" fill-rule="nonzero" d="M73.18 201.757c-.546-2.936-1.14-9.645-1.14-16.528 0-6.882 1.203-14.967 1.14-19.782-.145-10.964-4.18-20.164-3.833-23.661.828-8.342 12.492-5.737 12.946-1.361 1.031 9.934-3.113 57.7-3.276 60.709-.162 3.009-5.15 4.323-5.837.623z"/>
                <path fill="#020F2F" fill-rule="nonzero" d="M70.845 209.124c.568.687 1.542.825 2.423.915 1.138.165 2.292.187 3.436.066 1.359-.202 5.645-.202 6.913-.161 1.369.044 5.868.605 6.495-.356.626-.961.562-2.48-.428-3.048a6.607 6.607 0 0 0-.868-.34c-3.946-.87-7.432-5.41-9.197-5.666-.875-.04-.456 1.074-1.222 1.501-1.74.773-6.573-2.677-6.573 1.142 0 1.558-2.21 4.454-.98 5.947z"/>
                <path fill="#A1616A" fill-rule="nonzero" d="M50.111 202.772c-1.566-14.61-2.223-25.115-1.972-31.514.43-10.957-2.464-21.913-1.935-25.388 1.264-8.286 9.655-8.516 9.88-4.122.284 5.573-3.659 13.59 0 40.16.97 7.05.97 14.059 0 21.026l-5.973-.162z"/>
                <path fill="#020F2F" fill-rule="nonzero" d="M58.344 209.518c-.568.687-1.542.825-2.423.915-1.138.165-2.984-.13-4.128-.251-1.359-.202-3.897-.664-5.589-.664-1.308 0-4.374.362-5-.599-.627-.961-.564-2.48.427-3.048.281-.133 2.17-.721 2.467-.814 4.135-.347 3.915-3.877 5.68-4.132.875-.04-.796.599 1.453 1.383 2.248.784 5.149-1.96 5.908 0 .592 1.527 2.436 5.717 1.205 7.21z"/>
                <path fill="#2F2E41" fill-rule="nonzero" d="M39.926 102.539c-3.382 3.272-3.849 9.617-1.402 19.035 2.447 9.417 5.502 34.251 9.166 74.502l10.145.8.96-74.818 11.6 36.008v23.574l.738 15.235h10.255l2.035-40.37c.261-31.314-1.845-49.303-6.318-53.966-4.474-4.663-16.867-4.663-37.179 0z"/>
                <path fill="#A1616A" fill-rule="nonzero" d="M9.88 49.491c-.398-1.95.355-4.035-.234-5.936-.213-.686-.734-1.398-1.452-1.379-.697.02-1.168.702-1.786 1.025-.996.521-2.206.048-3.202-.474-.995-.522-2.105-1.113-3.184-.8-.128.676.329 1.321.826 1.797a4.86 4.86 0 0 1 1.336 1.55 6.66 6.66 0 0 1 .182 2.002c.114 1.545 1.092 2.875 2.07 4.076a73.555 73.555 0 0 0 5.01 5.557c-.003-.003 2.675-3.318 2.624-3.897-.049-.546-.95-1.056-1.277-1.497a5.13 5.13 0 0 1-.913-2.024zM89.635 90.31c.24.619.418 1.26.535 1.914.69 3.348 1.126 6.744 1.555 10.136.115.905.23 1.812.265 2.724a12.466 12.466 0 0 1-1.293 6.265 8.767 8.767 0 0 1-4.695 4.23c-.628.224-1.504.264-1.778-.342a1.293 1.293 0 0 1 .006-.866c.247-.904.751-1.714 1.078-2.592a6.993 6.993 0 0 0 .233-4.096c-.13-.519-.4-1.098-.926-1.202a4.657 4.657 0 0 1-.613 3.485c-.15.29-.407.507-.716.607a.963.963 0 0 1-1.008-.65 2.78 2.78 0 0 1-.082-1.29c.169-2.176.5-4.337.991-6.463.585-2.334 1.513-4.637 1.453-7.042-.054-2.18-.922-4.32-.679-6.487a.674.674 0 0 1 .124-.373.691.691 0 0 1 .272-.168 13.647 13.647 0 0 1 1.873-.62c.377-.095 1.665-.542 2.027-.342.293.162.383 1.133.53 1.461.258.582.603 1.122.848 1.71z"/>
                <circle cx="46.621" cy="16.834" r="8.901" fill="#A1616A" fill-rule="nonzero"/>
                <path fill="#A1616A" fill-rule="nonzero" d="M54.596 23.275c0 .568.044 1.134.135 1.694a9.61 9.61 0 0 0 .519 1.656c.297.87.717 1.693 1.246 2.445a3.666 3.666 0 0 0 2.253 1.468A64.08 64.08 0 0 1 39.503 36.1a8.155 8.155 0 0 0 2.553-2.726c.334-.702.562-1.45.676-2.219a18.63 18.63 0 0 0-.836-9.6c-.11-.302-.218-.674-.01-.919.09-.09.198-.16.317-.205a19.849 19.849 0 0 1 8.368-1.56c.733.004 1.466.037 2.197.09.393.028 1.262-.055 1.575.233.373.344.186 1.411.198 1.877l.055 2.204z"/>
                <path fill="#FF9B21" d="M50.955 27.113C46.661 27.6 39.503 32 32.865 38.269c-6.638 6.269-12.96 17.934-14.638 17.934-1.677 0-2.696-1.36-3.807-2.162-1.111-.802-2.016-1.86-3.111-2.684a114.322 114.322 0 0 1-3.131 4.272 1.378 1.378 0 0 1-.7.574c-.202.678.282 1.38.643 1.987l1.94 3.262a16.25 16.25 0 0 0 2.344 3.282 5.469 5.469 0 0 0 3.551 1.728 7.123 7.123 0 0 0 2.505-.48c3.699-1.244 7.095-3.229 10.613-4.916.637-.364 4.52-2.838 5.253-2.876.502-.013-.86 16.645-4.086 49.975 10.642.67 19.65 1.004 27.026 1.004 7.374 0 15.718-1.75 25.03-5.253-4.953-24.86-7.328-36.712-7.127-35.555.605 2.59 1.798 6.119 2.68 8.63.501 1.513.555 2.055 1.096 3.555.343.854.607 1.737.79 2.64.12.727.123 1.468.207 2.2.182 1.571.731 3.077 1.604 4.395.161.306.428.543.75.667.219.04.443.031.657-.027a25.969 25.969 0 0 0 6.758-2.338 2.7 2.7 0 0 0 1.141-.891c.575-.934-.067-2.101-.347-3.162-.299-1.136-.74-2.194-1.124-3.265-2.3-6.417-3.12-22.304-4.74-26.724-1.622-4.42-7.119-17.425-9.472-18.981-2.353-1.556-15.887-7.213-17.903-7.58-2.017-.367-2.017-.855-6.312-.367z"/>
                <path fill="#E87613" d="M72.04 56.909c1.692 6.614 2.674 10.31 2.945 11.086.272.777.634 2.67 1.089 5.676l.39 3.203c-1.903-2.509-3.11-5.08-3.622-7.713-.51-2.633-.778-6.717-.801-12.252z"/>
                <path fill="#2F2E41" fill-rule="nonzero" d="M38.532 19.012c-1.196-.644-.881-2.394-1.085-3.738-.418-2.765-5.541-9.834 4.961-14.078 3.236-1.308 6.935-.457 10.245.643 1.651.548 3.37 1.26 4.368 2.686 1.097 1.566 1.08 3.626 1.021 5.536-.092 2.997-.21 6.1-1.545 8.785-1.698 3.418-6.507 6.584-10.48 5.658-1.652-.385-2.139-1.423-2.835-2.859-.434-.894-.596-1.931-1.572-2.396-.954-.454-2.11.284-3.078-.237z"/>
                <path fill="#000" fill-rule="nonzero" d="M74.625 82.831c.011.236.018.474.02.714a19.655 19.655 0 0 1-.02-.714z" opacity=".1"/>
            </g>
            <g>
                <path fill="#D4D2D2" d="M325.547 443.963c.327.641.612 1.304.853 1.982.638 1.874.735 3.883.825 5.86a2.8 2.8 0 0 1-.104 1.136c-.272.71-1.059 1.07-1.794 1.268-3.08.828-6.326.05-9.502-.235-3.117-.279-6.293-.077-9.346-.765a4.65 4.65 0 0 1-1.294-.45 4.023 4.023 0 0 1-1.636-2.135 2.731 2.731 0 0 1-.185-.702c-.101-1.04.806-1.944 1.793-2.286.988-.342 2.062-.286 3.102-.393a9.779 9.779 0 0 0 8.653-8.161c.037-.228 5.142-.094 5.68.201.628.345 1.009 1.206 1.363 1.788.572.94 1.103 1.904 1.592 2.892z"/>
                <path fill="#E4E4E4" d="M316.156 443.688c.328.641.613 1.303.853 1.982.639 1.874.735 3.883.826 5.86a2.8 2.8 0 0 1-.104 1.136c-.273.71-1.06 1.07-1.795 1.268-3.079.828-6.326.049-9.502-.235-3.117-.279-6.292-.077-9.346-.765a4.65 4.65 0 0 1-1.294-.45 4.023 4.023 0 0 1-1.635-2.135 2.73 2.73 0 0 1-.186-.702c-.1-1.04.806-1.944 1.794-2.286.988-.342 2.062-.286 3.101-.393a9.779 9.779 0 0 0 8.654-8.162c.036-.227 5.141-.093 5.679.202.628.345 1.009 1.206 1.363 1.788.573.94 1.103 1.904 1.592 2.892z"/>
                <path fill="#B5352B" d="M334.466 316.08c1.387 5.167 4.733 25.966 4.065 29.008l.334 4.55a.833.833 0 0 1-1.06.793l-5.582-.115c.242-1.653.518-3.378.593-5.048.06-1.32.058-2.641.061-3.963.009-4.119.056-8.237.104-12.356l.084-7.235c.036-3.139-2.604-6.75-2.03-9.835.568-3.123-3.757-7.199-1.734-9.645 2.519 5.787 4.24 10.403 5.165 13.847z"/>
                <path fill="#2F2E41" fill-rule="nonzero" d="M292.72 393.342c-.065 10.25-.065 12.637 7.772 29.863 1.561 3.431 2.854 7.596 4.407 11.344.92 2.221 1.956 4.685.97 6.878 2.837-1.08 5.741-1.717 8.736-1.219-1.14-2.322-1.033-5.027-1.084-7.613a66.287 66.287 0 0 0-1.13-10.462 58.298 58.298 0 0 0-5.114-15.124 11.435 11.435 0 0 1-.992-3.188 20.281 20.281 0 0 1 .422-7.36 43.924 43.924 0 0 1 6.116-14.988l.03.306c.179 1.525 1.05 10.46.934 13.651-.126 3.386 1.01 10.354 1.513 11.58.503 1.225.223 2.54 1.136 6.733.914 4.193 1.579 18.544 0 26.111 2.66-.122 5.302.48 7.646 1.742 1.907-5.382 3.122-13.024 4.03-18.692a55.334 55.334 0 0 0-.616-20.14c-.447-2.208.738-4.654.854-6.904.203-4.482 3.91-17.353 5.004-21.704 1.095-4.35 1.471-10.098.72-14.75-.751-4.652-3.43-9.951-5.724-13.239-9.14.514-18.39-.342-27.515-1.044a1.845 1.845 0 0 0-1.294.22c-.31.316-.495.734-.52 1.176l-3.428 19.427a48.96 48.96 0 0 0-.976 8.21c-.017 2.75-1.874 15.483-1.897 19.186z"/>
                <path fill="#EFB7B9" fill-rule="nonzero" d="M305.238 287.424s5.078 8.088 4.138 9.78c-.94 1.693 15.987-1.504 15.987-1.504s-9.216-8.088-8.276-11.473c.94-3.386-11.85 3.197-11.85 3.197z"/>
                <path fill="#EFB7B9" fill-rule="nonzero" d="M315.523 288.035c-8.549 1.913-16.239 5.736-13.608-9.639 2.63-15.374 3.778-11.473 9.304-11.473s10.006 5.137 10.006 11.473c0 6.337 2.847 7.727-5.702 9.64z"/>
                <path fill="#FF4133" d="M305.068 295.905c3.677-2.922 2.895-3.054 4.825-3.893 1.11-.398 2.26-.681 3.428-.846l4.577-.805c1.122-.197 2.323-.386 3.363.077a5.448 5.448 0 0 1 1.434 1.048c1.59 1.473 3.133 3.094 5.127 3.944.547.233 4.641 17.337 6.267 28.089 1.626 10.751 2.564 24.173 2.564 28.104 0 3.93-4.989 3.352-15.054 5.018-10.066 1.667-21.055-5.622-25.745-7.647-.442-2.405.51-4.856 1.107-7.227.95-3.771 1.189-7.682 1.895-11.507.484-2.617 1.186-5.193 1.588-7.824.403-2.631.497-5.36-.226-7.92-.64-2.27-2.75-6.426-2.222-10.248.528-3.823 3.395-5.442 7.072-8.363z"/>
                <path fill="#EFB7B9" fill-rule="nonzero" d="M299.417 358.506c-.116 1.18.098 2.389-.16 3.546-.193.87-.644 1.66-.909 2.51-.263.985-.398 2-.402 3.02-.039.856.027 1.896.784 2.297.332.177.73.18 1.077.328.345.147.642.567.444.886-.166.27-.544.272-.854.336-.31.064-.651.385-.471.645a.554.554 0 0 0 .276.175c.317.096.617.24.889.428.275.196.416.53.365.864a.533.533 0 0 1-.763.352c.139.296.215.618.223.946-1.21.52-2.574-.16-3.713-.823a13.975 13.975 0 0 1-1.429-.909 7.114 7.114 0 0 1-2.753-6.055c.053-.582.142-1.16.267-1.732.177-.993.41-1.975.699-2.942.326-1.02.773-1.996 1.157-2.995.818-2.129 1.345-4.358 2.082-6.517a.753.753 0 0 1 .882-.664 8.657 8.657 0 0 1 2.47.227c.49.143 1.29.457 1.51.968.197.461-.134.874-.344 1.269a10.547 10.547 0 0 0-1.327 3.84z"/>
                <path fill="#B5352B" d="M299.599 303.645c-1.63 2.962-2.367 5.175-2.444 8.556-.086 3.805-1.853 31.01-.93 40.665-.051.23 4.972 1.225 5.561 1.886.666-2.006 7.068-18.844 8.02-22.8.429-1.875 3.625-19.751-2.46-25.972-2.462-4.69-7.59-2.647-7.747-2.335z"/>
                <path fill="#FF4133" d="M299.022 301.336c-1.63 2.963-2.367 5.175-2.444 8.556-.086 3.806-1.82 33.463-.896 43.119-.052.23-.162.443-.32.618a3.682 3.682 0 0 1 2.121-.028c.681.143 1.336.392 2.015.547.864.196 1.843.28 2.432.942.666-2.006 6.347-21.49 7.3-25.446.428-1.876 3.623-19.752-2.462-25.972-2.462-4.691-7.588-2.647-7.746-2.336z"/>
                <g fill="#000" fill-rule="nonzero" opacity=".1">
                    <path d="M301.285 266.5c1.41-1.777 3.233-3.382 5.458-3.828 1.809-.363 3.682.075 5.521-.07 1.63-.13 3.192-.715 4.813-.924a15.245 15.245 0 0 1 4.399.167 16.37 16.37 0 0 1 4.01 1.12c.693.308 1.355.684 1.976 1.12a17.217 17.217 0 0 0-3.541-.924 15.245 15.245 0 0 0-4.399-.167c-1.621.21-3.183.794-4.813.924-1.838.146-3.712-.293-5.52.07-2.226.447-4.048 2.051-5.459 3.83-1.312 1.655-2.41 3.775-1.852 5.812.294 1.073.975 2.01 1.162 3.115.193 1.137.233 1.557.989 2.543a14.405 14.405 0 0 0 3.483 3.244c-.368-.176-.738-.346-1.098-.53a14.35 14.35 0 0 1-4.83-4.031c-.756-.985-.797-1.406-.989-2.542-.187-1.106-.868-2.042-1.162-3.115-.558-2.038.54-4.158 1.852-5.813zM309.871 284.059a4.864 4.864 0 0 0-.641-.557c1.096.53 2.25.998 3.086 1.873 1.049 1.097 1.434 2.68 1.479 4.196.044 1.517-.21 3.027-.246 4.543a15.86 15.86 0 0 0 1 5.918c.628 1.674 1.533 3.229 2.24 4.87.822 1.908 1.372 3.921 2.114 5.862a31.774 31.774 0 0 0 12.05 14.996c.028.063.053.128.082.19a31.726 31.726 0 0 1-14.577-16.503c-.742-1.94-1.292-3.954-2.114-5.861-.707-1.642-1.613-3.197-2.24-4.87a15.86 15.86 0 0 1-1-5.918c.036-1.517.29-3.027.246-4.543-.045-1.517-.43-3.1-1.479-4.196z"/>
                </g>
                <path fill="#000" fill-rule="nonzero" d="M312.853 381.78c.179 1.524.436 3.038.77 4.536 1.988-3.438 4.13-6.79 5.96-10.315.472-.908.922-1.828 1.373-2.746l1.349-2.753c.252-.516.506-1.033.733-1.561.372-.762.657-1.562.85-2.387-.665-.122-2.305 1.672-2.798 2.14a38.17 38.17 0 0 0-2.86 3.153 34.31 34.31 0 0 0-2.969 3.887 18.935 18.935 0 0 0-2.408 6.045z" opacity=".1"/>
                <path fill="#2F2E41" fill-rule="nonzero" d="M299.433 272.314c-.558-2.038.54-4.158 1.852-5.813 1.41-1.778 3.233-3.383 5.458-3.83 1.809-.362 3.682.076 5.521-.07 1.63-.13 3.192-.714 4.813-.923a15.245 15.245 0 0 1 4.399.167 16.37 16.37 0 0 1 4.01 1.12c4.884 2.164 7.746 7.508 8.41 12.809.664 5.3-.5 10.64-1.658 15.855l-1.047 4.714c-1.088 4.907-2.181 9.84-2.473 14.857-.29 5.017.253 10.168 2.317 14.75a31.726 31.726 0 0 1-14.577-16.503c-.742-1.94-1.292-3.954-2.114-5.861-.707-1.642-1.612-3.197-2.24-4.87a15.86 15.86 0 0 1-1-5.918c.036-1.517.29-3.027.246-4.543-.045-1.517-.43-3.1-1.479-4.196-.932-.975-2.256-1.443-3.457-2.057a14.35 14.35 0 0 1-4.83-4.031c-.756-.985-.797-1.406-.989-2.542-.187-1.106-.868-2.042-1.162-3.115z"/>
            </g>
        </g>
    </g>
</svg>
