<svg xmlns="http://www.w3.org/2000/svg" width="470" height="630" viewBox="0 0 470 630">
    <g fill="none" fill-rule="evenodd">
        <path fill="#FFF" fill-opacity=".01" d="M0 0h470v630H0z"/>
        <path fill="#89C5CC" d="M380.704 190.507c-.295-.214-.994-.29-1.32-.354a21.387 21.387 0 0 0-4.122-.383c-4.25.007-8.568.424-12.747 1.146-2.653.458-5.86 2-8.5 1.163-4.598-1.46-9.245-1.388-13.607.696-3.989 1.905-7.016 5.523-8.783 9.433-.267.59-1.349 2.763-1.655 4.227-.13.3-.256.6-.37.907-.321.868-.61 1.752-.878 2.638-.115.378-.403 1.212-.06 1.374a25.11 25.11 0 0 0-1.435 3.121c-1.174 3.122-2.458 6.547-2.87 9.855a15.418 15.418 0 0 0-.017 3.685c.07.607.041 1.827.453 2.289.873.978 1.32-.392 1.222-1.045-.751-4.974.7-9.646 2.42-14.322 1.112-3.024 2.94-5.79 4.986-8.296 1.657-2.028 3.434-3.625 5.705-4.97 2.777-1.644 5.746-2.973 8.688-4.306 1.934-.878 3.871-1.731 5.86-2.487.442-.169 1.138-.6 1.628-.601 1.037-.004 2.507.761 3.508 1.046 3.295.936 6.631 2.136 10.036 2.614 2.184.307 4.23-.039 6.272-.766.209-.074.559-.265.987-.538 1.517-.584 2.951-1.318 4.2-2.377.72-.61 1.372-1.399 1.968-2.12a1.11 1.11 0 0 0 .26-.699c.135-.07.224-.152.244-.249.149-.71-1.206-.723-2.073-.68"/>
        <path fill="#DDE3E9" d="M52.073 249.724a62.087 62.087 0 0 0-2.449 2.082c-.608.547-1.684 1.202-1.902 2.03-.227.861.49 1.667 1.055 2.188 2.992 2.752 6.362 4.614 10.508 4.923 6.384.477 11.94-1.153 17.48-4.361 3.89-2.254 6.467-5.587 7.03-10.088 4.634 1.926 9.116 4.58 12.924 7.839 1.88 1.607 3.498 3.388 4.995 5.362a62.736 62.736 0 0 1 2.746 3.884c.375.58.755 1.608 1.373 1.942.725.392 1.601-.223 1.565-1.029-.03-.67-.754-1.45-1.093-1.998a74.649 74.649 0 0 0-1.735-2.701c-.974-1.435-1.98-2.848-3.076-4.191-2.466-3.015-5.603-5.506-8.855-7.63-6.238-4.076-13.084-6.643-20.675-6.86-4.668-.134-8.594 1.46-12.586 3.842-2.485 1.482-5.05 2.94-7.305 4.766"/>
        <path fill="#C1DEE2" d="M96.047 230.013c-4.864-5.009-9.745-9.956-15.18-14.366-3.202-2.6-6.577-4.963-9.882-7.427.381.334.755.678 1.12 1.03-1.031-.7-2.382-1.096-3.476-1.745-1.22-.723-2.387-1.55-3.53-2.384-2.234-1.627-4.433-3.285-6.729-4.828-2.557-1.718-5.208-3.306-7.809-4.96-2.207-1.402-4.442-2.938-6.804-4.085-1.287-.626-2.577-1.367-3.87-2.02-.432-.217-4.82-2.989-4.81-2.997.243-.183 2.452.855 2.793.995.998.407 1.952.895 2.911 1.38-.526-1.038-.943-2.13-1.17-3.278-.07-.354-.631-2.935-.344-3.151.143-.109 1.544 4.509 1.615 4.953.059.36.05.88.168 1.221.19.551.181.385.6.696.77.569 1.792.925 2.624 1.4.45.251 1.84 1.246 2.677 1.529 2.534 1.23 5.103 3.124 7.51 4.696a17.706 17.706 0 0 1-1.463-3.73c-.083-.31-.983-3.08-.765-3.245.246-.186 1.96 4.047 2.062 4.448.189.744.228 1.573.464 2.297.26.795 1.068 1.077 1.798 1.54a129.449 129.449 0 0 1 7.821 5.41c2.78-4.943-.425-10.914-3.127-15.062-1.947-2.99-4.568-5.553-7.336-7.79-3.694-2.987-7.92-5.373-12.141-7.555-4.919-2.543-10.235-4.118-15.761-4.846-2.89-.38-5.848-.37-8.768-.248-1.426.06-2.795.248-4.162.714-.616.21-1.211.474-1.792.77-.44.225-1.507.463-1.76.798-2.087 2.716-3.154 5.422-2.991 8.834.154 3.23 1.174 6.463 2.559 9.344 1.542 3.209 3.525 6.12 6.118 8.565 1.98 1.865 4.192 3.487 6.39 5.09 7.816 5.696 17.726 10.65 27.85 9.377 3.277-.411 6.394-1.558 9.307-3.115.686-.367 1.368-.738 2.016-1.171.437-.292 1.605-1.609 2.044-1.656.602-.066 1.9 1.159 2.465 1.532a233.44 233.44 0 0 1 12.569 8.931c4.355 3.308 8.497 6.84 12.517 10.54 1.71 1.573 3.409 3.15 5.069 4.776.386.378 1.331 1.771 2.032 1.834.443.04.742-.338.679-.748-.11-.713-1.61-1.78-2.108-2.293"/>
        <path fill="#69A1AC" d="M375.597 210.572c-1.884-.411-3.964-.38-5.884-.346-10.292.14-20.4 5.013-26.977 12.8-5.6 6.628-7.14 14.869-8.246 23.2-.11.827-.157 1.649-.219 2.478a7.22 7.22 0 0 1-.054.486c-.435.388-.663.842-.406 1.34a55.38 55.38 0 0 0-2.465 6.466c-2.047 6.53-4.13 13.182-2.847 20.048.3-3.778.93-7.642 1.684-11.358.044-.213.09-.425.14-.636l.014-.066a24.837 24.837 0 0 1 1.036-3.329l.013-.035c.056-.143.115-.285.174-.427.12-.295.245-.589.376-.881.045-.1.088-.2.129-.302.614-1.505.873-3.202 1.424-4.76a33.52 33.52 0 0 1 .44-1.12c.389-.944.82-1.877 1.275-2.8.247-.187.38-.648.593-1.068.044-.082.39-.633.492-.95.268-.52.535-1.038.805-1.556l-.024.009.81-1.486.179-.325.29-.518a97.734 97.734 0 0 1 2.85-4.756c.354-.557 1.2-1.356 1.363-1.982.005-.023.007-.045.01-.067 2.155-3.026 4.635-5.817 7.609-8.028-.36.389-1.124 1.708-1.326 1.969-.618.8-1.29 1.543-1.963 2.296-1.207 1.35-2.385 2.742-3.431 4.214-1.915 2.692-3.566 5.525-5.127 8.416l-.045.05c-.785.967-1.279 2.429-1.843 3.535 2.235-1.035 4.706-1.71 7-2.629 2.288-.916 4.513-1.936 6.661-3.135 2.856-1.592 5.818-3.39 8.516-5.426 3.091-1.918 5.69-4.557 7.983-7.327 2.713-3.278 5.2-6.584 6.738-10.564.755-1.955 1.35-3.994 1.702-6.057a7.81 7.81 0 0 1 .056-.289c.36-.712.683-1.441.954-2.186.43-1.182 1.443-2.482-.459-2.898"/>
        <path fill="#89C5CC" d="M75.126 228.838c-.59-.639-1.253-1.215-2.031-1.627-.197-.104-1.663-.8-1.758-.647-.223.356 3.612 2.07 3.79 2.274m6.949-4.269c-.005.027.503.89.641 1.155.295.563.567 1.138.823 1.714-.379-1.017-.768-1.96-1.464-2.869m-35.542 7.02c-.49.158-1.078-.464-.443-.617.514-.122.488-.151.72-.565.186-.336.302-.746.466-1.099.349-.748.744-1.46 1.23-2.13a16.954 16.954 0 0 1 3.73-3.707c2.48-1.816 5.263-3.475 8.214-4.309 4.693-1.325 10.033-1.407 14.733-.488 2.91.569 5.57 1.558 7.504 3.902.966 1.171 1.724 2.543 2.055 4.054.087.395.07.834.179 1.221.166.594.093.436.788.552.76.126 1.518.255 2.276.386 1.986.344 3.983.708 5.918 1.266.637.183 1.26.407 1.868.668.46.196 2.292.814 2.515 1.412.37.995-.871.544-1.257.327-.338-.19-.685-.367-1.037-.53a16.99 16.99 0 0 0-2.754-.98c-1.021-.273-2.063-.477-3.1-.68-.968-.19-1.939-.364-2.911-.53-.54-.091-1.08-.18-1.622-.27-.184-.03-.51-.19-.485.05-1.137-.219-2.366-.187-3.524-.248-1.418-.074-2.842-.134-4.264-.09a29.93 29.93 0 0 0-3.075.237c-.596.08-1.183.199-1.769.348-.321.082-1.59.256-1.764.536.075-.12 1.474-.004 1.652-.01.713-.027 1.42-.098 2.13-.177a33.069 33.069 0 0 1 3.955-.213c-.005.232-.907.645-1.128.799-.493.345-.967.72-1.408 1.133-.778.727-1.708 1.627-2.246 2.487.158-.253.94-.583 1.218-.777.444-.31.88-.642 1.292-.996.38-.327.735-.68 1.084-1.041.35-.361.823-1.112 1.281-1.352.028-.015.228.143.342.09.114-.055.257-.325.286-.336.427-.165 1.238.04 1.686.06 1.164.054 2.327.125 3.49.189.36.02.667-.063.803.203.145.284-.12 1.029-.196 1.338-.28 1.146-.779 2.175-1.563 3.063-1.468 1.664-3.279 2.774-5.324 3.516-7.835 2.842-16.17 3.98-24.004 1.024-3.242-1.224-8.126-3.412-7.541-7.716"/>
        <path fill="#DDE3E9" d="M386.496 361.087c5.33 36.083-123.937 59.618-235.2 43.194C40.035 387.856-11.007 323.715 42.086 289.538c53.093-34.176 339.08 35.467 344.41 71.55z" opacity=".35"/>
        <path fill="#C1DEE2" d="M417.705 226.878c-1.952-1.767-4.768-2.553-7.35-2.916-10.084-1.417-20.088.992-29.06 5.416-4.916 2.424-9.477 5.75-13.59 9.302-2.374 2.05-4.553 4.323-6.24 6.955-1.138 1.776-2.014 3.67-2.706 5.654-.843 2.417-1.592 4.899-2.125 7.402-.21.986-1.53 6.187.112 6.509a2.307 2.307 0 0 0-.053.365c-4.384 5.115-7.53 11.388-10.467 17.343-2.555 5.182-4.921 10.437-6.748 15.912a181.944 181.944 0 0 0-5.837 22.042c-.318 1.6-.608 3.206-.89 4.814l-.718 4.114c-.267 1.537-.789 3.277-.76 4.846.027 1.367 1.212 1.328 1.45.004.288-1.598.504-3.209.8-4.807.394-2.12.79-4.24 1.194-6.36 2.81-14.716 7.589-28.934 14.589-42.225 2.833-5.378 5.92-10.412 9.656-15.23 3.285-4.238 7.084-8.252 10.91-11.95 3.72-3.595 7.55-7.078 11.892-9.955 3.524-2.335 7.31-4.269 11.17-6.02 4.902-2.226 9.786-4.382 14.969-5.89 2.694-.785 5.42-1.443 8.127-2.178.487-.132 1.007-.254 1.48-.42 1.582-.553 1.257-1.766.195-2.727"/>
        <path fill="#89C5CC" d="M369.861 272.935c4.09.574 7.655 1.617 11.195 3.772 3.056 1.86 5.76 4.134 8.354 6.56 3.649 3.413 6.372 7.17 7.988 11.87.966 2.806 1.423 6.65.126 9.382-1.528 3.217-4.82 5.617-8.551 4.488-2.308-.698-4.25-2.564-5.837-4.285-1.898-2.06-3.318-4.416-4.406-6.963-1.774-4.156-2.525-8.677-3.927-12.955-.665-2.031-1.297-4.071-2.16-6.033-.427-.972-.89-1.94-1.636-2.722-.399-.419-2.204-1.3-1.368-1.996-10.626-1.352-21.167 5.474-24.62 15.27-.322.913-.603 1.84-.893 2.763-.183.584-.452 2.791-1.04 3.098-1.295.675-.441-1.811-.339-2.172.265-.933.537-1.864.817-2.792 1.52-5.048 4.492-9.523 8.84-12.664 4.973-3.593 11.267-5.491 17.457-4.621"/>
        <g transform="translate(148.586 152.762)">
            <rect width="185.042" height="191.118" fill="#F2F2F2" rx="4.419"/>
            <rect width="38.666" height="44.742" x="137.539" y="23.752" fill="#FFF" rx="4.419"/>
            <g fill="#DDE3E9" transform="translate(143.062 32.037)">
                <circle cx="13.809" cy="8.838" r="8.838"/>
                <rect width="27.618" height="3.314" y="19.885" rx="1.657"/>
                <rect width="18.78" height="3.314" x="4.419" y="25.409" rx="1.657"/>
            </g>
            <path fill="#C5CFD6" d="M4.419 0h176.204a4.419 4.419 0 0 1 4.42 4.419v10.495H0V4.419A4.419 4.419 0 0 1 4.419 0z"/>
            <g fill="#F2F2F2" transform="translate(4.971 5.524)">
                <circle cx="2.209" cy="2.209" r="2.209"/>
                <circle cx="8.838" cy="2.209" r="2.209"/>
                <circle cx="15.466" cy="2.209" r="2.209"/>
            </g>
            <g transform="translate(137.539 72.912)">
                <rect width="38.666" height="107.159" fill="#FFF" rx="4.419"/>
                <g transform="translate(9.943 9.943)">
                    <rect width="18.78" height="14.361" fill="#DDE3E9" rx="2.209"/>
                    <rect width="18.78" height="13.809" y="18.78" fill="#AFB9C5" rx="2.209"/>
                    <rect width="18.78" height="13.809" y="37.008" fill="#DDE3E9" rx="2.209"/>
                    <rect width="18.78" height="13.809" y="73.464" fill="#DDE3E9" rx="2.209"/>
                    <rect width="18.78" height="13.809" y="55.236" fill="#C5CFD6" rx="2.209"/>
                </g>
            </g>
            <g transform="translate(8.838 24.304)">
                <rect width="124.282" height="25.961" fill="#FFF" rx="2.209"/>
                <g fill="#DDE3E9" transform="translate(4.971 7.788)">
                    <rect width="92.245" height="3.894" rx="1.657"/>
                    <rect width="61.918" height="3.894" y="6.49" rx="1.657"/>
                </g>
                <g transform="translate(107.133 9.114)">
                    <circle cx="3.867" cy="3.867" r="3.867" fill="#DDE3E9"/>
                    <circle cx="3.867" cy="3.867" r="1.657" fill="#F2F2F2"/>
                </g>
            </g>
            <g transform="translate(8.838 54.684)">
                <rect width="124.282" height="21.542" fill="#FFF" rx="2.209"/>
                <g fill="#DDE3E9" transform="translate(4.971 6.463)">
                    <rect width="92.245" height="3.231" rx="1.616"/>
                    <rect width="61.918" height="3.231" y="5.386" rx="1.616"/>
                </g>
                <g transform="translate(107.133 6.905)">
                    <circle cx="3.867" cy="3.867" r="3.867" fill="#DDE3E9"/>
                    <circle cx="3.867" cy="3.867" r="1.657" fill="#F2F2F2"/>
                </g>
            </g>
            <g transform="translate(8.838 80.645)">
                <rect width="124.282" height="21.542" fill="#FFF" rx="2.209"/>
                <g fill="#DDE3E9" transform="translate(4.971 6.463)">
                    <rect width="92.245" height="3.231" rx="1.616"/>
                    <rect width="61.918" height="3.231" y="5.386" rx="1.616"/>
                </g>
                <g transform="translate(107.133 6.905)">
                    <circle cx="3.867" cy="3.867" r="3.867" fill="#DDE3E9"/>
                    <circle cx="3.867" cy="3.867" r="1.657" fill="#AFB9C5"/>
                </g>
            </g>
            <g transform="translate(8.838 158.529)">
                <rect width="124.282" height="21.542" fill="#FFF" rx="2.209"/>
                <g fill="#DDE3E9" transform="translate(4.971 6.463)">
                    <rect width="92.245" height="3.231" rx="1.616"/>
                    <rect width="61.918" height="3.231" y="5.386" rx="1.616"/>
                </g>
                <g transform="translate(107.133 6.905)">
                    <circle cx="3.867" cy="3.867" r="3.867" fill="#DDE3E9"/>
                    <circle cx="3.867" cy="3.867" r="1.657" fill="#F2F2F2"/>
                </g>
            </g>
            <g transform="translate(8.838 132.567)">
                <rect width="124.282" height="21.542" fill="#FFF" rx="2.209"/>
                <g fill="#DDE3E9" transform="translate(4.971 6.463)">
                    <rect width="92.245" height="3.231" rx="1.616"/>
                    <rect width="61.918" height="3.231" y="5.386" rx="1.616"/>
                </g>
                <g transform="translate(107.133 6.905)">
                    <circle cx="3.867" cy="3.867" r="3.867" fill="#DDE3E9"/>
                    <circle cx="3.867" cy="3.867" r="1.657" fill="#F2F2F2"/>
                </g>
            </g>
            <g transform="translate(8.838 106.606)">
                <rect width="124.282" height="21.542" fill="#FFF" rx="2.209"/>
                <g fill="#DDE3E9" transform="translate(4.971 6.463)">
                    <rect width="92.245" height="3.231" rx="1.616"/>
                    <rect width="61.918" height="3.231" y="5.386" rx="1.616"/>
                </g>
                <g transform="translate(107.133 6.905)">
                    <circle cx="3.867" cy="3.867" r="3.867" fill="#DDE3E9"/>
                    <circle cx="3.867" cy="3.867" r="1.657" fill="#F2F2F2"/>
                </g>
            </g>
        </g>
        <g transform="translate(97.769 185.351)">
            <rect width="87.826" height="166.814" fill="#F2F2F2" rx="4.419"/>
            <circle cx="43.637" cy="148.034" r="8.285" fill="#FFF"/>
            <g fill="#FFF" transform="translate(35.351 8.838)">
                <circle cx="1.105" cy="1.105" r="1.105"/>
                <rect width="11.6" height="2.209" x="4.971" rx="1.105"/>
            </g>
            <g transform="translate(7.733 15.466)">
                <rect width="72.36" height="29.828" fill="#FFF" rx="2.209"/>
                <g fill="#DDE3E9" transform="translate(21.542 8.948)">
                    <rect width="40.323" height="4.474" rx="1.657"/>
                    <rect width="27.066" height="4.474" y="7.457" rx="1.657"/>
                </g>
                <circle cx="11.6" cy="14.914" r="6.628" fill="#C5CFD6"/>
            </g>
            <g transform="translate(7.733 49.713)">
                <rect width="72.36" height="23.199" fill="#FFF" rx="2.209"/>
                <g fill="#DDE3E9" transform="translate(21.542 6.96)">
                    <rect width="40.323" height="3.48" rx="1.657"/>
                    <rect width="27.066" height="3.48" y="5.8" rx="1.657"/>
                </g>
                <circle cx="11.6" cy="11.6" r="6.628" fill="#C5CFD6"/>
            </g>
            <g transform="translate(7.733 77.331)">
                <rect width="72.36" height="23.199" fill="#FFF" rx="2.209"/>
                <g fill="#DDE3E9" transform="translate(21.542 6.96)">
                    <rect width="40.323" height="3.48" rx="1.657"/>
                    <rect width="27.066" height="3.48" y="5.8" rx="1.657"/>
                </g>
                <circle cx="11.6" cy="11.6" r="6.628" fill="#AFB9C5"/>
            </g>
            <g transform="translate(7.733 104.95)">
                <rect width="72.36" height="23.199" fill="#FFF" rx="2.209"/>
                <g fill="#DDE3E9" transform="translate(21.542 6.96)">
                    <rect width="40.323" height="3.48" rx="1.657"/>
                    <rect width="27.066" height="3.48" y="5.8" rx="1.657"/>
                </g>
                <circle cx="11.6" cy="11.6" r="6.628" fill="#C5CFD6"/>
            </g>
        </g>
        <g transform="translate(107.711 199.713)">
            <g fill="#89C5CC">
                <path d="M6.706 120.415c-.732 0-1.462.015-2.193.053-.557.03-1.408-.086-1.88.261-.49.36-.455 1.099-.379 1.62.404 2.758 1.392 5.203 3.457 7.156 3.18 3.008 6.825 4.536 11.138 5.217 3.03.478 5.828-.186 8.058-2.34 1.63 3.024 2.866 6.371 3.487 9.75.306 1.667.4 3.314.345 5.011a43.21 43.21 0 0 1-.21 3.254c-.051.47-.291 1.182-.107 1.626.216.522.945.573 1.272.128.272-.37.222-1.098.278-1.536a51.41 51.41 0 0 0 .24-2.188c.1-1.184.173-2.37.168-3.56-.013-2.669-.606-5.35-1.418-7.884-1.558-4.862-4.085-9.183-8.016-12.573-2.417-2.085-5.183-2.93-8.321-3.382-1.954-.283-3.94-.613-5.92-.613"/>
                <path d="M17.991 139.748c-7.898 0-13.217 6.366-15.733 12.982-.948 2.493-1.17 5.232-1.535 7.85-.118.84-.074 2.121-.415 2.87-.124.271-.408.369-.272.739a.6.6 0 0 0 .485.405c.497.092 1.2-.45 1.625-.663 3.533-1.772 5.855-4.511 7.748-7.863 1.174-2.078 2.365-4.235 3.062-6.515.426-1.394.674-2.861.82-4.307.057-.569.113-1.152.11-1.724-.004-.568-.268-.869-.458-1.363 2.635-.998 5.61-1.27 8.28-.236 2.468.956 4.52 2.804 5.668 5.125.298.603.528 1.24.696 1.89.11.424.115.976.318 1.36.493.933 1.53.31 1.431-.558-.278-2.42-1.662-4.85-3.432-6.533-2.232-2.122-5.257-3.459-8.398-3.459"/>
            </g>
            <rect width="87.826" height="166.814" x="26.513" fill="#DDE3E9" rx="4.419"/>
            <circle cx="70.15" cy="148.034" r="8.285" fill="#FFF"/>
            <g fill="#FFF" transform="translate(61.865 8.838)">
                <circle cx="1.105" cy="1.105" r="1.105"/>
                <rect width="11.6" height="2.209" x="4.971" rx="1.105"/>
            </g>
            <g transform="translate(34.247 15.466)">
                <rect width="72.36" height="29.828" fill="#FFF" rx="2.209"/>
                <g fill="#DDE3E9" transform="translate(4.971 8.948)">
                    <rect width="40.323" height="4.474" rx="1.657"/>
                    <rect width="27.066" height="4.474" y="7.457" rx="1.657"/>
                </g>
                <g transform="translate(60.76 11.047)">
                    <circle cx="3.867" cy="3.867" r="3.867" fill="#DDE3E9"/>
                    <circle cx="3.867" cy="3.867" r="1.657" fill="#F2F2F2"/>
                </g>
            </g>
            <g transform="translate(34.247 49.713)">
                <rect width="72.36" height="23.199" fill="#FFF" rx="2.209"/>
                <g fill="#DDE3E9" transform="translate(21.542 6.96)">
                    <rect width="40.323" height="3.48" rx="1.657"/>
                    <rect width="27.066" height="3.48" y="5.8" rx="1.657"/>
                </g>
                <circle cx="11.6" cy="11.6" r="6.628" fill="#C5CFD6"/>
            </g>
            <g transform="translate(34.247 77.331)">
                <rect width="72.36" height="23.199" fill="#FFF" rx="2.209"/>
                <g transform="translate(4.971 6.96)">
                    <rect width="40.323" height="3.48" fill="#DDE3E9" rx="1.657"/>
                    <rect width="27.066" height="3.48" y="5.8" fill="#AFB9C5" rx="1.657"/>
                </g>
                <g transform="translate(60.76 7.733)">
                    <circle cx="3.867" cy="3.867" r="3.867" fill="#DDE3E9"/>
                    <circle cx="3.867" cy="3.867" r="1.657" fill="#F2F2F2"/>
                </g>
            </g>
            <g transform="translate(34.247 104.95)">
                <rect width="72.36" height="23.199" fill="#FFF" rx="2.209"/>
                <g fill="#DDE3E9" transform="translate(21.542 6.96)">
                    <rect width="40.323" height="3.48" rx="1.657"/>
                    <rect width="27.066" height="3.48" y="5.8" rx="1.657"/>
                </g>
                <circle cx="11.6" cy="11.6" r="6.628" fill="#C5CFD6"/>
            </g>
        </g>
        <g>
            <path fill="#DDE3E9" d="M18.746 275.241c10.31 17.298 22.32 34.046 29.531 52.959-.29-2.23-.599-4.456-.944-6.68-1.83-11.788-4.104-23.49-6.493-35.177-1.217-5.951-2.505-11.88-3.825-17.809-.71-3.184-1.411-6.37-2.136-9.551-.175-.772-.326-2.117-.546-3.481 7.009 22.998 13.767 46.014 18.711 69.566.649 3.09 1.2 6.176 1.653 9.256.155-.703.307-1.405.474-2.106 2-8.4 5-16.733 8.573-24.587 1.708-3.756 3.67-7.43 5.98-10.853 1.44-2.134 4.837-4.67 6.151-6.856-7.186 13.18-9.78 29.671-13.93 44-1.013 3.497-2.032 6.988-3.03 10.486 6.257-12.549 15.965-22.86 29.463-27.327-16.339 10.795-26.139 29.701-32.743 49.037-.021.23-.047.459-.07.688 1.944-3.688 4.392-7.024 7.71-9.36 7.1-5.002 14.977-3.545 21.865.746-5.406-3.437-15.176-.308-19.725 3.185-3.256 2.5-6.039 5.854-8.455 9.127-.58.784-1.37 1.7-2.204 2.676a120.64 120.64 0 0 1-5.776 22.622c.445-2.148.123-5.583.246-7.184.014-.174.025-.347.038-.52-.41 1.639-.807 3.258-1.188 4.852.758-3.041 1.17-6.216 1.493-9.423.083-1.379.164-2.757.249-4.136a134.022 134.022 0 0 0-.317-7.873c-.646-2.556-1.37-4.968-1.966-6.973-2.154-7.237-5.31-14.17-9.195-20.637-3.545-5.902-7.787-11.248-12.686-16.083-2.64-2.605-5.404-5.087-8.128-7.603-.985-.91-2.746-3.146-4.27-4.312 11.092 6.115 22.509 12.73 30.6 22.583a245.567 245.567 0 0 0-3.068-10.753c-5.53-17.856-12.512-36.36-22.042-52.499z"/>
            <path fill="#C5CFD6" d="M29.828 373.155c0 19.83 1.57 35.904 22.647 35.904 21.076 0 22.647-16.075 22.647-35.904"/>
        </g>
        <g>
            <path fill="#C5CFD6" d="M86.383 385.728h44.042l5.771 70.614h-65.56z"/>
            <path fill="#000" fill-opacity=".1" d="M86.383 385.728h13.545l8.108 70.614h-37.4z"/>
            <path fill="#EFB7B9" fill-rule="nonzero" d="M180.144 373.533l.164-.096c4.692-2.634 12.356.943 12.35 4.92-.016 12.037-10.98 68.767-11.552 72.353-.572 3.586-6.705 4.534-7.062.012-.568-7.195.862-31.654 1.918-43.183.567-6.18.641-12.076.65-17.022-5.62 10.458-15.107 26.442-28.46 47.952l-6.537-2.992c5.134-16.946 9.343-28.91 12.628-35.89 5.625-11.954 10.9-22.19 13.12-25.795 3.491-5.672 9.57-3.693 12.781-.259z"/>
            <path fill="#252439" fill-rule="nonzero" d="M142.082 426.066l22.437-53.255c5.375-8.663 20.446 1.763 18.613 6.787-4.162 11.408-25.326 48.339-26.566 51.737l-14.484-5.269z"/>
            <path fill="#E4E4E4" d="M141.065 431.887c-1.467 1.193-2.417 2.164-2.85 2.913-.512.888-1.11 2.27-1.797 4.144l27.92 16.12c2.102-1.968 2.427-3.497.973-4.59a179.466 179.466 0 0 1-3.598-2.764l-9.696-13.302a.505.505 0 0 0-.715-.103l-2.05 1.572c-1.835-.164-3.204-.508-4.11-1.03-.755-.436-1.626-1.355-2.613-2.757a1.01 1.01 0 0 0-1.464-.203zM172.748 447.786c-.674 1.766-1.01 3.081-1.01 3.946 0 1.026.171 2.521.515 4.488h32.238c.837-2.754.354-4.241-1.451-4.461-1.805-.22-3.305-.418-4.498-.595l-15.048-6.672a.505.505 0 0 0-.672.269l-.989 2.386c-1.67.775-3.028 1.163-4.073 1.163-.873 0-2.087-.36-3.643-1.081a1.01 1.01 0 0 0-1.369.557z"/>
            <path fill="#2F2E41" fill-rule="nonzero" d="M194.23 382.448c0 15.11-7.16 50.355-7.165 53.682l-15.409.011c2.255-31.448 3.055-47.342 2.4-47.68-.985-.509-40.331 3.936-52.132 3.936-17.017 0-24.056-10.752-24.627-30.67h33.709c6.864.736 42.664 7.972 55.96 10.459 5.692 1.065 7.265 6.1 7.265 10.262z"/>
            <g>
                <path fill="#EFB7B9" fill-rule="nonzero" d="M79.291 346.597l11.123 2.206c-11.186 20.844-17.185 31.892-17.996 33.142-1.827 2.814-.123 7.972.507 10.688-3.949.919-2.392-5.024-7.389-3.783-4.56 1.132-8.428 4.039-12.681.119-.523-.482-.906-1.989.877-2.761 4.442-1.925 11.004-5.53 12.068-6.929 1.45-1.908 5.948-12.802 13.491-32.682zm111.397-14.241c-2.127 2.25-4.263 4.71-3.713 5.704.55.993 2.704.334 3.266 1.897.375 1.042-3.177 1.655-10.655 1.839l-16.315 8.849-4.944-8.928 20.777-5.454c3.94-2.852 7.634-4.908 11.082-6.17.996-.151 2.629.014.502 2.263z"/>
                <path fill="#DB2721" d="M117.03 302.092l2.648 2.25c10.223 9.915 16.709 34.217 23.521 37.37 6.442 2.981 18.919-.543 29.772-4.438l3.324 7.425c-11.96 9.536-41.922 15.466-44.087 9.536-2.779-7.613-15.671-35.502-15.178-52.143z"/>
                <path fill="#DDE3E9" d="M100.184 363.964c14.005 2.804 24.787 2.296 32.344-1.525 1.828-.924 1.828-2.618 1.548-5.962-1.41-16.815-8.585-50.43-17.046-54.385h-1.555c-9.908 15.934-13.335 35.552-15.291 61.872z"/>
                <path fill="#EFB7B9" fill-rule="nonzero" d="M126.467 279.037c3.146 5.862 2.357 18.603-3.31 20.663-1.74.632-4.075.325-6.45-.741l2.083 14.741h-13.026l4.287-19.98c-2.42-3.025-4.03-6.976-3.714-11.485.815-11.615 16.985-9.06 20.13-3.198z"/>
                <path fill="#FF4133" d="M116.864 302.092c12.475 36.655 16.3 61.078 11.475 73.27H90.956c.592-8.921 2.488-18.355 5.086-27.554-8.466 15.27-15.582 26.264-21.349 32.981l-8.705-1.705c15.408-40.006 22.323-55.364 48.851-76.992z"/>
                <g>
                    <path fill="#2F2E41" fill-rule="nonzero" d="M127.074 279.069c-2.467.467-7.436 2.841-11.398 6.247a3.337 3.337 0 0 0-1.577-.392c-1.827 0-3.31 1.455-3.31 3.25a3.2 3.2 0 0 0 .665 1.954c-.785 1.302-1.32 2.671-1.496 4.078-2.718 0-12.638-10.366-2.756-20.119 9.883-9.753 24.164 4.17 19.872 4.982z"/>
                    <path fill="#2F2E41" fill-rule="nonzero" d="M126.686 282.45c0-2.475-.51-4.716-1.748-6.593-1.332-2.017-3.052-3.836-5.153-4.343-1.707-.411-3.476.086-5.211-.08-1.539-.146-3.013-.81-4.543-1.047a12.018 12.018 0 0 0-4.153.19 13.505 13.505 0 0 0-3.785 1.27c-4.61 2.454-7.312 8.515-7.939 14.526-.626 6.011.473 12.068 1.565 17.982l.988 5.346c1.028 5.564 2.06 11.158 2.334 16.848.275 5.69-.238 11.532-2.186 16.729 11.302-4.652 17.278-28.989 17.87-30.887.667-2.144 1.118-15.378 2.108-16.622.88-1.105 2.13-1.637 3.263-2.333 1.783-1.1 3.34-2.66 4.56-4.57 1.22-1.911 2.03-3.942 2.03-6.417z"/>
                    <path fill="#2F2E41" fill-rule="nonzero" d="M126.686 282.45c0-2.475-.51-4.716-1.748-6.593-1.332-2.017-3.052-3.836-5.153-4.343-1.707-.411-3.476.086-5.211-.08-1.539-.146-3.013-.81-4.543-1.047a12.018 12.018 0 0 0-4.153.19 13.505 13.505 0 0 0-3.785 1.27c-4.61 2.454-7.312 8.515-7.939 14.526-.626 6.011.473 12.068 1.565 17.982l.988 5.346c1.028 5.564 2.06 11.158 2.334 16.848.275 5.69-.238 11.532-2.186 16.729 11.302-4.652 17.278-28.989 17.87-30.887.667-2.144 1.118-15.378 2.108-16.622.88-1.105 2.13-1.637 3.263-2.333 1.783-1.1 3.34-2.66 4.56-4.57 1.22-1.911 2.03-3.942 2.03-6.417z"/>
                </g>
            </g>
            <g>
                <g fill-rule="nonzero">
                    <path fill="#A1616A" d="M269.487 420.083l-9.239 42.706h-8.738l1.767-23.074z"/>
                    <path fill="#252439" d="M298.106 326.356l-20.58 72.359-15.753 59.55-11.584-1.584 17.327-130.325z"/>
                    <path fill="#020F2F" d="M263.478 459.171c.78 2.084 1.17 3.644 1.17 4.678 0 1.259-.21 3.095-.628 5.51h-39.311c-1.022-3.382-.432-5.207 1.769-5.477 2.2-.27 4.03-.513 5.485-.73l18.27-8.155a.697.697 0 0 1 .93.37l1.174 2.853c2.037.952 3.693 1.428 4.967 1.428 1.035 0 2.464-.418 4.287-1.255a1.394 1.394 0 0 1 1.887.778z"/>
                    <path fill="#A1616A" d="M298.106 373.855c-1.292 33.135 9.476 34.105 9.765 37.115.289 3.011 12.633 16.021 23.816 51.314h-9.089c-14.81-33.857-21.745-51.896-23.444-56.342-1.698-4.446-10.767-18.415-18.091-50.115l17.043 18.028z"/>
                    <path fill="#2F2E41" d="M300.937 325.356c10.482 16.085 0 62.938 5.438 71.89 5.437 8.953 7.793 15.904 24.456 56.521l-11.026 4.498c-18.605-38.107-29.023-51.905-31.19-56.909-2.166-5.004-9.118-36.482-18.534-74.603l30.856-1.397z"/>
                    <path fill="#020F2F" d="M331.443 455.839c1.52 2.065 2.426 3.645 2.719 4.738.326 1.216.599 3.044.819 5.484l-37.971 10.174c-1.862-3.001-1.765-4.917.291-5.747 2.056-.83 3.76-1.539 5.11-2.125l15.77-12.795a.405.405 0 0 1 .578.068l2.055 2.69c2.214.392 3.937.423 5.167.094 1.098-.294 2.524-1.2 4.28-2.714a.81.81 0 0 1 1.182.133z"/>
                </g>
                <g fill-rule="nonzero">
                    <path fill="#A1616A" d="M271.47 233.27c-3.59 6.692-4.249 20.364 1.476 24.864 2.142 1.684 5.821.995 9.539-1.222l-2.252 15.93h14.87l-4.932-22.988c2.769-3.751 4.603-8.293 4.278-12.934-.93-13.26-19.389-10.342-22.98-3.65z"/>
                    <path fill="#2F2E41" d="M291.127 251.966c1.866-8.304 7.183-13.964 6.371-17.675-.541-2.474-1.984-4.013-4.328-4.616-1.213-4.905-5.124-6.991-11.732-6.259-9.913 1.099-15.963 5.216-13.35 14.274 2.401 0 5.3-.868 9.31.62 1.272.472 2.182 1.936 2.73 4.393h1.812c1.758-2.915 3.492-3.987 5.201-3.214 1.71.773 2.098 2.65 1.166 5.63l.892 6.847h1.928z"/>
                </g>
                <path fill="#A1616A" fill-rule="nonzero" d="M324.24 316.458l-12.948.051c7.994 25.809 12.31 39.503 12.948 41.082 1.433 3.553-1.6 8.965-2.898 11.873 4.226 1.89 3.775-5.112 9.106-2.632 4.866 2.263 8.567 6.365 14.188 2.896.691-.426 1.449-2.032-.381-3.287-4.559-3.125-11.129-8.596-12.016-10.397-1.21-2.456-3.877-15.651-8-39.586zm-75.885-.5l-19.764 14.513c-5.36 1.446-9.839 3.246-13.435 5.399-.85.774-1.877 2.342 1.647 2.07 3.523-.27 7.241-.397 7.727.805.486 1.202-1.646 2.639-.663 4.26.655 1.081 3.75-1.63 9.286-8.131l19.571-8.116-4.369-10.8z"/>
                <path fill="#E87613" d="M287.443 262.127l-5.357-.919c-19.88 17.172-28.044 50.163-52.41 67.64l5.864 7.269c32.727-17.812 45.518-43.216 51.903-73.99z"/>
                <path fill="#DDE3E9" d="M310.8 329.458h-47.407c-2.167 0-1.758-3.128-1.445-4.707 3.614-18.216 16.989-58.145 20.456-62.948l10.94-2.98c11.31 18.19 15.222 40.587 17.455 70.635z"/>
                <path fill="#FF9B21" d="M294.377 258.823l-.017.015-5.539.317c-8.037 33.3-13.25 57.794-15.639 73.483l-.074.493 37.691 5.46c.094-4.785.04-9.444-.15-13.97 4.215 11.954 8.105 22.24 11.67 30.86h10.166c-10.037-58.715-22.74-90.934-38.108-96.658l.318.123-.068-.123-.218.012-.032-.012z"/>
                <path fill="#000" fill-opacity=".1" d="M299.546 337.226l11.253 1.365v-14.008c-1.209-3.41-2.466-7.018-3.774-10.827-2.164 10.91-4.657 18.733-7.479 23.47z"/>
            </g>
        </g>
    </g>
</svg>
