<svg xmlns="http://www.w3.org/2000/svg" width="471" height="630" viewBox="0 0 471 630">
    <g fill="none" fill-rule="evenodd">
        <path fill="#FFF" fill-opacity=".01" d="M.813 0h470v630h-470z"/>
        <path fill="#89C5CC" d="M340.613 273.715c-.244-.177-.822-.24-1.092-.293a17.707 17.707 0 0 0-3.413-.317c-3.518.005-7.093.35-10.553.948-2.196.38-4.852 1.657-7.037.963-3.807-1.208-7.654-1.149-11.266.576-3.302 1.578-5.809 4.573-7.272 7.81-.22.489-1.116 2.287-1.37 3.5-.108.248-.212.497-.306.75-.266.72-.505 1.452-.727 2.185-.095.313-.333 1.004-.05 1.137a20.79 20.79 0 0 0-1.188 2.585c-.972 2.584-2.034 5.42-2.376 8.159a12.765 12.765 0 0 0-.014 3.05c.058.503.034 1.513.375 1.895.723.81 1.094-.324 1.012-.864-.622-4.12.58-7.987 2.003-11.858.921-2.504 2.434-4.794 4.129-6.869 1.371-1.679 2.843-3 4.723-4.114 2.299-1.361 4.757-2.462 7.192-3.566 1.602-.726 3.206-1.433 4.852-2.058.366-.14.942-.497 1.348-.498.859-.003 2.075.63 2.905.866 2.727.775 5.49 1.768 8.308 2.164 1.808.254 3.502-.032 5.193-.634.173-.061.463-.22.817-.446 1.256-.482 2.443-1.09 3.477-1.967.596-.505 1.137-1.158 1.63-1.756a.92.92 0 0 0 .215-.578c.111-.058.186-.126.202-.206.123-.588-.998-.599-1.717-.564"/>
        <path fill="#DDE3E9" d="M37.377 328.628c-.69.56-1.367 1.13-2.028 1.724-.503.453-1.394.995-1.575 1.681-.187.713.406 1.38.874 1.81 2.477 2.28 5.267 3.82 8.7 4.077 5.285.395 9.885-.955 14.47-3.61 3.222-1.866 5.356-4.626 5.822-8.352 3.836 1.594 7.547 3.792 10.7 6.489 1.556 1.331 2.895 2.805 4.135 4.44a51.94 51.94 0 0 1 2.274 3.215c.31.48.625 1.332 1.136 1.608.6.325 1.326-.184 1.296-.852-.025-.555-.624-1.2-.905-1.654a61.803 61.803 0 0 0-1.437-2.236c-.805-1.188-1.638-2.358-2.546-3.47-2.041-2.496-4.639-4.559-7.33-6.317-5.166-3.374-10.834-5.5-17.118-5.68-3.865-.11-7.115 1.21-10.42 3.181-2.057 1.228-4.181 2.435-6.048 3.946"/>
        <path fill="#C1DEE2" d="M81.042 305.09c-4.027-4.147-8.068-8.242-12.567-11.894-2.652-2.152-5.446-4.109-8.183-6.149.316.277.626.561.928.853-.854-.58-1.972-.908-2.878-1.445-1.01-.598-1.976-1.283-2.923-1.973-1.849-1.348-3.67-2.72-5.57-3.997-2.118-1.423-4.312-2.737-6.466-4.106-1.827-1.162-3.677-2.434-5.632-3.383-1.066-.518-2.134-1.132-3.204-1.672-.358-.18-3.992-2.475-3.983-2.482.201-.151 2.03.708 2.312.824.826.337 1.616.74 2.41 1.143-.435-.86-.78-1.763-.968-2.714-.058-.294-.523-2.43-.285-2.61.118-.089 1.278 3.734 1.337 4.101.048.299.041.729.139 1.011.158.457.15.32.497.576.637.472 1.483.766 2.173 1.16.371.208 1.523 1.031 2.216 1.266 2.098 1.019 4.224 2.586 6.218 3.888a14.659 14.659 0 0 1-1.212-3.089c-.07-.256-.814-2.55-.633-2.686.203-.154 1.623 3.35 1.707 3.682.156.617.188 1.303.384 1.902.215.658.884.892 1.488 1.275a107.173 107.173 0 0 1 6.476 4.48c2.301-4.094-.352-9.036-2.589-12.47-1.612-2.476-3.782-4.598-6.074-6.45-3.058-2.473-6.557-4.448-10.052-6.255-4.072-2.105-8.473-3.41-13.049-4.012-2.393-.316-4.841-.307-7.258-.206-1.181.05-2.315.206-3.446.591-.51.174-1.003.393-1.484.638-.365.186-1.247.383-1.457.66-1.728 2.25-2.611 4.49-2.476 7.315.127 2.674.972 5.35 2.118 7.736 1.277 2.656 2.919 5.067 5.066 7.09 1.638 1.544 3.47 2.888 5.29 4.214 6.47 4.716 14.675 8.818 23.057 7.764 2.713-.34 5.294-1.29 7.705-2.579.568-.304 1.133-.611 1.67-.97.361-.241 1.328-1.331 1.692-1.37.498-.055 1.573.96 2.04 1.268a193.269 193.269 0 0 1 10.407 7.394c3.606 2.739 7.035 5.664 10.363 8.726a184.784 184.784 0 0 1 4.196 3.954c.32.313 1.103 1.467 1.683 1.52.367.032.614-.281.562-.62-.091-.591-1.333-1.474-1.745-1.899"/>
        <path fill="#69A1AC" d="M336.144 294.884c-1.56-.34-3.283-.315-4.871-.286-8.522.115-16.89 4.15-22.336 10.596-4.636 5.488-5.91 12.311-6.826 19.208-.091.685-.13 1.366-.181 2.052a5.978 5.978 0 0 1-.045.402c-.36.322-.55.698-.336 1.11a45.85 45.85 0 0 0-2.041 5.353c-1.695 5.406-3.42 10.914-2.357 16.598.248-3.128.77-6.326 1.394-9.403.036-.177.075-.352.115-.527l.012-.055c.221-.942.509-1.856.858-2.755l.01-.03c.047-.118.096-.236.144-.353.1-.244.203-.487.312-.73.037-.082.073-.165.107-.25.508-1.246.723-2.65 1.179-3.94.109-.293.223-.586.342-.876l.021-.051a38.19 38.19 0 0 1 1.057-2.32c.204-.153.314-.535.49-.883.037-.068.323-.524.408-.787.222-.43.443-.86.667-1.288l-.02.008c.223-.412.448-.822.67-1.23l.148-.27.24-.429a80.915 80.915 0 0 1 2.36-3.937c.293-.462.994-1.123 1.128-1.641.005-.02.006-.037.01-.056 1.783-2.505 3.836-4.815 6.298-6.646-.298.322-.93 1.414-1.098 1.63-.511.662-1.067 1.278-1.625 1.901-.999 1.118-1.974 2.27-2.84 3.489-1.585 2.229-2.953 4.574-4.245 6.967-.012.014-.026.028-.037.042-.65.8-1.059 2.01-1.526 2.927 1.85-.857 3.896-1.416 5.795-2.177 1.894-.758 3.737-1.603 5.515-2.595 2.364-1.319 4.817-2.808 7.05-4.492 2.56-1.588 4.711-3.774 6.61-6.067 2.246-2.714 4.305-5.45 5.578-8.746.626-1.619 1.118-3.307 1.41-5.015.012-.074.028-.155.046-.239.299-.59.565-1.193.79-1.81.355-.978 1.195-2.055-.38-2.399"/>
        <path fill="#89C5CC" d="M61.959 308.854c-.489-.53-1.038-1.007-1.682-1.347-.163-.086-1.377-.663-1.456-.536-.184.294 2.99 1.714 3.138 1.883m5.753-3.535c-.004.023.417.737.532.956.243.467.469.943.68 1.42-.313-.842-.635-1.623-1.212-2.376m-29.425 5.812c-.406.13-.893-.384-.367-.51.425-.102.404-.126.595-.469.155-.278.251-.617.387-.909.289-.62.616-1.21 1.018-1.763a14.036 14.036 0 0 1 3.088-3.07c2.054-1.503 4.358-2.877 6.801-3.567 3.885-1.098 8.307-1.165 12.198-.404 2.41.47 4.612 1.29 6.212 3.23.8.97 1.427 2.106 1.702 3.357.071.327.058.69.148 1.01.137.493.077.362.652.457.629.105 1.257.212 1.885.32 1.644.285 3.297.586 4.9 1.048.526.152 1.042.337 1.546.553.38.163 1.898.674 2.082 1.17.307.823-.721.45-1.04.27-.28-.157-.568-.304-.86-.438a14.066 14.066 0 0 0-2.28-.812c-.845-.226-1.707-.395-2.566-.564a95.61 95.61 0 0 0-2.41-.437c-.447-.076-.895-.15-1.343-.224-.153-.025-.422-.158-.402.041-.94-.181-1.959-.155-2.917-.205-1.174-.062-2.353-.112-3.53-.075-.85.027-1.7.082-2.546.196-.494.067-.98.165-1.465.288-.266.068-1.315.212-1.46.444.062-.1 1.22-.003 1.368-.008.59-.023 1.175-.08 1.762-.147a27.378 27.378 0 0 1 3.276-.176c-.004.192-.752.534-.934.661-.409.286-.8.597-1.166.939-.644.601-1.415 1.346-1.86 2.059.131-.21.779-.483 1.008-.644.368-.257.729-.531 1.07-.825.315-.27.609-.563.898-.861.289-.3.681-.92 1.06-1.12.024-.012.19.12.283.075.095-.045.213-.27.237-.278.354-.137 1.025.033 1.397.05.963.044 1.926.103 2.89.156.297.016.55-.052.664.168.12.235-.1.852-.163 1.108-.232.949-.645 1.8-1.294 2.536-1.215 1.378-2.715 2.296-4.408 2.91-6.487 2.354-13.388 3.296-19.873.848-2.684-1.013-6.727-2.824-6.243-6.388"/>
        <path fill="#DDE3E9" d="M394.694 435.515c5.58 34.794-129.753 57.489-246.237 41.65C31.972 461.329-21.465 399.479 34.119 366.523c55.585-32.956 354.995 34.2 360.575 68.993z" opacity=".35"/>
        <g transform="translate(78.902 218.841)">
            <rect width="72.712" height="138.108" fill="#F2F2F2" rx="3.658"/>
            <circle cx="36.128" cy="122.559" r="6.86" fill="#FFF"/>
            <g fill="#FFF" transform="translate(29.268 7.317)">
                <circle cx=".915" cy=".915" r="1"/>
                <rect width="9.604" height="1.829" x="4.116" rx=".915"/>
            </g>
            <g transform="translate(6.402 12.805)">
                <rect width="59.908" height="24.695" fill="#FFF" rx="1.829"/>
                <g fill="#DDE3E9" transform="translate(17.835 7.408)">
                    <rect width="33.384" height="3.704" rx="1.372"/>
                    <rect width="22.408" height="3.704" y="6.174" rx="1.372"/>
                </g>
                <circle cx="9.604" cy="12.347" r="5.488" fill="#C5CFD6"/>
            </g>
            <g transform="translate(6.402 41.158)">
                <rect width="59.908" height="19.207" fill="#FFF" rx="1.829"/>
                <g fill="#DDE3E9" transform="translate(17.835 5.762)">
                    <rect width="33.384" height="2.881" rx="1.372"/>
                    <rect width="22.408" height="2.881" y="4.802" rx="1.372"/>
                </g>
                <circle cx="9.604" cy="9.604" r="5.488" fill="#C5CFD6"/>
            </g>
            <g transform="translate(6.402 64.024)">
                <rect width="59.908" height="19.207" fill="#FFF" rx="1.829"/>
                <g fill="#DDE3E9" transform="translate(17.835 5.762)">
                    <rect width="33.384" height="2.881" rx="1.372"/>
                    <rect width="22.408" height="2.881" y="4.802" rx="1.372"/>
                </g>
                <circle cx="9.604" cy="9.604" r="5.488" fill="#AFB9C5"/>
            </g>
            <g transform="translate(6.402 86.89)">
                <rect width="59.908" height="19.207" fill="#FFF" rx="1.829"/>
                <g fill="#DDE3E9" transform="translate(17.835 5.762)">
                    <rect width="33.384" height="2.881" rx="1.372"/>
                    <rect width="22.408" height="2.881" y="4.802" rx="1.372"/>
                </g>
                <circle cx="9.604" cy="9.604" r="5.488" fill="#C5CFD6"/>
            </g>
        </g>
        <path fill="#C1DEE2" d="M347.712 333.41c-1.804-1.223-4.203-1.543-6.361-1.543-8.431 0-16.356 3.128-23.202 7.789-3.751 2.553-7.107 5.806-10.07 9.192-1.71 1.954-3.234 4.069-4.314 6.42-.728 1.588-1.228 3.242-1.567 4.948-.413 2.079-.741 4.2-.89 6.314-.058.832-.542 5.248.842 5.323a1.91 1.91 0 0 0-.002.306c-3.004 4.698-4.86 10.204-6.582 15.424-1.498 4.543-2.833 9.124-3.7 13.824a150.634 150.634 0 0 0-2.245 18.743 174.979 174.979 0 0 0-.175 4.05l-.115 3.455c-.042 1.291-.27 2.778-.064 4.061.179 1.118 1.146.949 1.189-.164.052-1.343.043-2.689.102-4.033.078-1.784.159-3.568.246-5.351.608-12.39 2.888-24.597 7.095-36.3 1.703-4.736 3.654-9.22 6.162-13.6 2.205-3.852 4.857-7.581 7.568-11.054 2.635-3.375 5.374-6.672 8.603-9.532 2.62-2.32 5.502-4.342 8.464-6.223 3.762-2.389 7.518-4.72 11.593-6.554 2.119-.953 4.278-1.806 6.413-2.721.384-.165.796-.324 1.165-.515 1.233-.635.827-1.593-.155-2.259"/>
        <path fill="#89C5CC" d="M313.31 378.039c3.42 0 6.462.444 9.613 1.803 2.72 1.173 5.198 2.726 7.604 4.416 3.385 2.377 6.051 5.144 7.918 8.81 1.115 2.19 1.932 5.29 1.184 7.679-.882 2.813-3.304 5.16-6.494 4.664-1.972-.306-3.78-1.612-5.28-2.84-1.792-1.47-3.228-3.238-4.413-5.201-1.934-3.203-3.07-6.823-4.713-10.17-.779-1.588-1.532-3.187-2.466-4.697-.462-.747-.954-1.487-1.655-2.043-.375-.297-1.957-.811-1.352-1.479-8.867.117-16.723 6.927-18.425 15.357-.159.786-.283 1.578-.413 2.368-.083.5-.05 2.34-.496 2.66-.984.703-.57-1.434-.528-1.742.109-.795.225-1.59.348-2.383.664-4.314 2.585-8.325 5.788-11.402 3.663-3.518 8.605-5.8 13.78-5.8"/>
        <path fill="#DDE3E9" d="M65.898 315.035c8.537 14.321 18.479 28.188 24.45 43.846a230.35 230.35 0 0 0-.782-5.53c-1.515-9.76-3.398-19.448-5.376-29.124a868.092 868.092 0 0 0-3.167-14.744c-.587-2.637-1.168-5.274-1.768-7.908-.145-.639-.27-1.753-.452-2.882 5.802 19.04 11.398 38.096 15.491 57.595a127.65 127.65 0 0 1 1.369 7.663c.128-.582.254-1.163.392-1.743 1.656-6.955 4.14-13.854 7.098-20.357 1.414-3.11 3.038-6.15 4.95-8.985 1.193-1.767 4.005-3.867 5.093-5.676-5.95 10.912-8.097 24.565-11.533 36.429-.838 2.895-1.682 5.785-2.509 8.68 5.18-10.389 13.219-18.925 24.394-22.624-13.527 8.938-21.641 24.59-27.109 40.599-.018.19-.04.38-.058.57 1.61-3.054 3.636-5.816 6.383-7.75 5.878-4.141 12.4-2.935 18.103.618-4.476-2.845-12.565-.255-16.33 2.637-2.696 2.07-5 4.847-7.001 7.556-.48.65-1.134 1.407-1.825 2.215a99.88 99.88 0 0 1-4.782 18.73c.369-1.778.102-4.623.204-5.948.012-.144.02-.287.032-.43-.34 1.356-.668 2.697-.984 4.017.628-2.518.97-5.147 1.236-7.802.068-1.142.135-2.283.206-3.424-.022-2.166-.111-4.34-.262-6.518-.535-2.117-1.134-4.113-1.628-5.774-1.783-5.99-4.396-11.73-7.613-17.085-2.934-4.886-6.447-9.312-10.502-13.315-2.186-2.158-4.474-4.212-6.73-6.295-.816-.753-2.274-2.605-3.535-3.57 9.184 5.063 18.635 10.54 25.334 18.697a203.309 203.309 0 0 0-2.54-8.903c-4.578-14.783-10.359-30.104-18.249-43.465z"/>
        <path fill="#C5CFD6" d="M75.073 396.1c0 16.417 1.3 29.725 18.75 29.725s18.75-13.308 18.75-29.725"/>
        <g transform="translate(139.898 124)">
            <rect width="157.78" height="320.746" fill="#AAA" rx="16.323"/>
            <rect width="22.033" height="4.475" x="63.67" y="9.578" fill="#E6E8EC" fill-rule="nonzero" rx="1.162"/>
            <ellipse cx="91.572" cy="11.816" fill="#E6E8EC" fill-rule="nonzero" rx="2.538" ry="2.538"/>
            <path fill="#FFF" fill-rule="nonzero" d="M147.76 20.548v278.969c-.002 6.921-5.613 12.53-12.532 12.53H21.998c-6.919 0-12.53-5.609-12.53-12.53V20.547A12.53 12.53 0 0 1 22 8.013h16.943v2.178c.001 5.7 4.62 10.32 10.318 10.321h57.584c5.699 0 10.319-4.621 10.319-10.321V8.013h18.064a12.53 12.53 0 0 1 12.531 12.535z"/>
            <path fill="#000" fill-rule="nonzero" d="M92.786 127.249a17.413 17.413 0 0 1 11.907 5.02c.864.819 1.114 1.869.654 2.248l-.827.68c-4.206 3.094-6.302 7.356-5.852 12.754.45 5.398 3.143 9.311 7.742 11.841 1.043.574 1.63 1.572 1.258 2.361-.225.471-.45.948-.685 1.419-2.351 4.727-5.668 10.125-10.145 13.198a9.323 9.323 0 0 1-5.253 1.696 8.289 8.289 0 0 1-2.975-.559c-.935-.358-1.845-.773-2.765-1.162a14.053 14.053 0 0 0-5.473-1.076c-1.946.003-3.877.35-5.703 1.025-1.983.747-3.828 1.772-6 1.772-3.818 0-7.135-2.664-9.342-5.414-4.513-5.603-7.845-12-9.2-19.099-1.41-7.329-.608-16 5.045-21.582a17.749 17.749 0 0 1 10.64-5.076c.363-.046.726-.046 1.083-.046 3.26 0 6.307 1.24 9.373 2.223 1.057.34 2.16.513 3.271.512 3.66 0 6.777-1.854 10.66-2.52.855-.143 1.72-.215 2.587-.215zm-2.305-14.34a.893.893 0 0 1 .945.911c-.066 3.053-1.247 11.411-12.045 13.429a1.24 1.24 0 0 1-.22 0 .97.97 0 0 1-1.022-.953c.03-2.945 1.165-10.827 12.07-13.357.09-.02.18-.03.272-.03z" opacity=".103"/>
        </g>
        <g transform="translate(39.177 199.72)">
            <path fill="#C5CFD6" d="M21.954 23.774l-.006.015c.002-.005.006-.023.006-.015"/>
            <path fill="#C5CFD6" d="M21.95 23.78l-.001.005c0-.004.008-.018 0-.004"/>
            <path fill="#C5CFD6" d="M21.982 23.703l-.022.054.01-.025c-.094.238-.034.083.012-.029"/>
            <path fill="#C5CFD6" d="M21.961 23.759l-.01.025c-.027.051.01-.025.01-.025M21.95 23.78z"/>
            <path fill="#C5CFD6" d="M21.95 23.781l.001-.002v.002M21.946 23.788c-.005.01.026-.042 0 0M21.95 23.781l.002-.002-.002.002"/>
            <rect width="43.445" height="28.811" fill="#DDE3E9" rx="1.829"/>
            <path fill="#AFB9C5" d="M16.463 8.232L3.658 28.81h25.61z"/>
            <path fill="#C5CFD6" d="M29.04 13.72L17.834 28.81h22.408z"/>
            <circle cx="33.841" cy="9.604" r="4.116" fill="#FFF"/>
        </g>
        <g opacity=".5">
            <path fill="#69A1AC" d="M385.684 301.541c1.442-2.051 4.118-7.262 6.148-7.995 1.307-.472.926 4.412.942 5.344.063 3.603-.288 7.183-.723 10.756-.782 6.444-3.34 12.183-6.848 17.667-1.805 2.822-3.923 5.678-6.856 7.44-1.35.81-2.974.946-4.307 1.645-1.553.813-.707.155-1.407 1.77-.972 2.24-1.283 5.132-1.732 7.524-2.065 10.977-7.062 69.009-6.196 80.176.077.99-1.306 1.226-1.375.018-.367-6.407 2.809-50.773 4.411-65.282 1.602-14.509 3.224-27.327 4.85-32.346 1.972-6.09 5.535-13.414 8.5-19.093 1.377-2.638 2.879-5.186 4.593-7.624z"/>
            <path fill="#C1DEE2" d="M396.21 372.241c3.748-2.752 7.806 2.442 4.413 5.195-1.875 1.522-3.835.98-4.939-.288-.716.874-1.387 1.787-2.031 2.558a127.084 127.084 0 0 0-5.592 7.22c-3.684 5.117-6.84 10.522-10.142 15.828-3.257 5.237-6.488 10.501-9.44 15.871-2.502 4.55-5.836 9.902-6.692 14.89 1.3-10.578 6.23-20.746 12.1-30.07 5.823-9.25 12.506-19.35 21.523-26.649-.918-1.35-.944-3.276.8-4.555z"/>
            <path fill="#69A1AC" d="M325.36 346.498c2.09.41 5.504 5.165 7.227 6.977 2.047 2.152 3.905 4.447 5.656 6.85a115.99 115.99 0 0 1 10.007 16.413c4.673 9.353 8.417 18.954 11.134 29.138 1.663 6.234 2.74 12.696 3.378 19.112.12 1.21 1.382 10.54-.436 10.792-1.635.226-1.13-7.085-1.208-8.079-.892-11.219-3.563-22.135-7.279-32.71-.81-2.303-1.561-5.124-2.855-7.197-.932-1.493-.007-.973-1.645-1.538-1.406-.485-3.009-.367-4.45-.961-3.128-1.29-5.633-3.795-7.83-6.314-4.267-4.897-7.649-10.194-9.412-16.468-.978-3.479-1.876-6.978-2.375-10.564-.129-.927-1.259-5.716.087-5.451z"/>
            <path fill="#89C5CC" d="M333.308 267.944c7.899 13.7 14.39 28.749 18.581 43.991 2.54 9.235 4.315 18.712 6.08 28.12 2.732 14.567 5.316 29.133 6.051 43.959.74 14.912 2.202 32.111-2.68 46.473 2.438-14.581.116-30.103-.295-44.775-.196-7.004-.766-13.94-1.512-20.904-.725-6.755-1.91-13.477-3.012-20.179a868.182 868.182 0 0 0-1.675-9.78c-.172-.972-.244-3.856-.86-4.52-.62-.668-3.786-.94-4.78-1.43-2-.988-3.883-2.39-5.549-3.873-3.194-2.841-5.972-6.554-8.164-10.213-5.074-8.468-7.102-18.803-7-28.61.02-1.904 3.082-22.408 1.852-22.69.074-.087.144-.176.21-.27a375.82 375.82 0 0 1 2.753 4.701z"/>
            <path fill="#89C5CC" d="M418.644 317.547c.12-.175.909-1.396.512-1.318.807-.16-1.111 1.346.901.423-.955.907-.404 2.086-.39 3.307.02 1.983-.31 3.95-.681 5.89-.587 3.068-1.462 6.05-2.73 8.903-2.766 6.218-7.463 12.203-13.038 16.09-2.753 1.92-5.45 2.573-8.59 3.456-1.982.558-2.14 1.59-3.192 3.525-2.191 4.03-4.343 8.046-6.276 12.212-2.307 4.975-4.547 9.955-6.66 15.018-7.118 17.052-12.912 34.719-15.955 53.002-.074-10.774 2.404-21.87 5.53-32.14 2.278-7.483 5.243-14.695 8.405-21.835.766-1.73 1.927-3.955 2.252-5.864.228-1.338-.468-2.625-.787-4.035-1.244-5.488-1.155-11.637-.063-17.155 1.204-6.085 4.686-8.91 10.575-9.771 2.154-.315 4.892-.2 6.867-1.123 2.152-1.006 3.04-4.312 4.263-6.434 3.286-5.7 7.191-11.168 11.675-15.97a37.954 37.954 0 0 1 3.993-3.695c.893-.718 2.78-1.602 3.389-2.486z"/>
            <path fill="#C1DEE2" d="M354.815 425.947h16.214a3.784 3.784 0 0 1 3.744 4.333l-.752 5.126a11.065 11.065 0 0 1-10.948 9.46h-.302a11.065 11.065 0 0 1-10.948-9.46l-.752-5.126a3.784 3.784 0 0 1 3.744-4.333z"/>
        </g>
        <g transform="translate(211.677 234.827)">
            <path fill="#A1616A" fill-rule="nonzero" d="M94.064 259.402c-.7-3.775-1.464-12.4-1.464-21.25s1.546-19.243 1.464-25.435c-.185-14.096-5.373-25.924-4.926-30.421 1.064-10.725 16.057-7.376 16.64-1.75 1.326 12.773-4.002 74.185-4.21 78.054-.209 3.869-6.62 5.56-7.504.802z"/>
            <path fill="#020F2F" fill-rule="nonzero" d="M91.063 268.874c.73.882 1.982 1.06 3.115 1.176 1.463.213 2.946.241 4.417.085 1.746-.26 7.255-.26 8.885-.208 1.76.057 7.543.78 8.348-.457.806-1.236.724-3.189-.55-3.918a8.49 8.49 0 0 0-1.115-.437c-5.072-1.118-9.553-6.958-11.822-7.285-1.125-.053-.586 1.38-1.57 1.93-2.237.993-8.45-3.443-8.45 1.468 0 2.002-2.84 5.727-1.258 7.646z"/>
            <path fill="#A1616A" fill-rule="nonzero" d="M64.412 260.706c-2.012-18.784-2.857-32.29-2.535-40.518.552-14.087-3.168-28.173-2.487-32.64 1.624-10.655 12.41-10.95 12.7-5.301.365 7.166-4.703 17.473 0 51.635 1.247 9.065 1.247 18.075 0 27.033l-7.678-.209z"/>
            <path fill="#020F2F" fill-rule="nonzero" d="M74.995 269.38c-.731.883-1.983 1.06-3.115 1.177-1.463.212-3.836-.167-5.306-.323-1.747-.26-5.01-.853-7.184-.853-1.682 0-5.623.465-6.428-.77-.805-1.237-.724-3.19.55-3.92.361-.17 2.789-.927 3.17-1.046 5.316-.446 5.033-4.985 7.301-5.313 1.126-.052-1.022.77 1.868 1.778s6.62-2.52 7.595 0c.76 1.963 3.13 7.351 1.549 9.27z"/>
            <path fill="#2F2E41" fill-rule="nonzero" d="M51.32 131.836c-4.346 4.207-4.947 12.365-1.802 24.473 3.145 12.108 7.072 44.038 11.782 95.789l13.04 1.027 1.233-96.194 14.911 46.297v30.309l.95 19.588h13.18l2.617-51.905c.336-40.26-2.371-63.389-8.122-69.384-5.75-5.996-21.68-5.996-47.789 0z"/>
            <path fill="#A1616A" fill-rule="nonzero" d="M12.7 63.632c-.512-2.507.456-5.19-.301-7.633-.273-.882-.944-1.798-1.866-1.772-.896.025-1.502.902-2.297 1.317-1.28.67-2.835.062-4.115-.61-1.28-.67-2.706-1.43-4.093-1.028-.164.87.423 1.699 1.062 2.31a6.25 6.25 0 0 1 1.717 1.993c.208.841.287 1.71.235 2.574.145 1.986 1.403 3.696 2.659 5.241a94.562 94.562 0 0 0 6.44 7.144c-.003-.004 3.44-4.265 3.373-5.01-.062-.701-1.22-1.358-1.641-1.924a6.596 6.596 0 0 1-1.173-2.602zM115.216 116.112c.307.797.537 1.62.687 2.461.888 4.306 1.448 8.671 2 13.033.147 1.164.294 2.33.34 3.502a16.031 16.031 0 0 1-1.662 8.054 11.27 11.27 0 0 1-6.035 5.44c-.807.287-1.934.34-2.286-.44a1.662 1.662 0 0 1 .008-1.114c.318-1.161.966-2.204 1.386-3.332a8.993 8.993 0 0 0 .299-5.266c-.166-.667-.515-1.412-1.19-1.545a5.99 5.99 0 0 1-.789 4.48 1.584 1.584 0 0 1-.92.78 1.238 1.238 0 0 1-1.295-.836 3.574 3.574 0 0 1-.105-1.658 56.123 56.123 0 0 1 1.274-8.31c.752-3 1.944-5.961 1.867-9.054-.069-2.803-1.185-5.554-.873-8.34a.867.867 0 0 1 .16-.48.888.888 0 0 1 .349-.215 17.54 17.54 0 0 1 2.408-.797c.484-.123 2.14-.698 2.605-.44.377.208.493 1.456.68 1.879.333.748.777 1.441 1.092 2.198z"/>
            <ellipse cx="59.926" cy="21.643" fill="#A1616A" fill-rule="nonzero" rx="11.441" ry="11.444"/>
            <path fill="#A1616A" fill-rule="nonzero" d="M70.177 29.926c-.001.729.057 1.457.173 2.177.158.728.381 1.44.667 2.129a12.483 12.483 0 0 0 1.603 3.144 4.712 4.712 0 0 0 2.895 1.887 82.352 82.352 0 0 1-24.738 7.151 10.484 10.484 0 0 0 3.282-3.504c.428-.903.721-1.865.869-2.853.73-4.137.359-8.394-1.075-12.342-.142-.39-.281-.868-.012-1.183a1.12 1.12 0 0 1 .406-.264 25.507 25.507 0 0 1 10.756-2.006c.942.006 1.884.048 2.824.116.506.036 1.623-.07 2.025.3.48.442.24 1.814.254 2.414l.071 2.834z"/>
            <path fill="#FF9B21" d="M65.497 34.86c-5.52.627-14.72 6.282-23.253 14.343-8.533 8.06-16.66 23.058-18.815 23.058-2.155 0-3.466-1.748-4.894-2.78-1.428-1.031-2.591-2.391-3.999-3.45a146.984 146.984 0 0 1-4.025 5.492c-.208.34-.525.6-.9.738-.258.872.363 1.774.828 2.555l2.494 4.194a20.893 20.893 0 0 0 3.012 4.22 7.029 7.029 0 0 0 4.565 2.221 9.154 9.154 0 0 0 3.22-.617c4.754-1.599 9.119-4.151 13.641-6.32.82-.469 5.81-3.65 6.753-3.698.645-.017-1.106 21.4-5.253 64.253 13.68.861 25.26 1.292 34.739 1.292 9.48 0 20.204-2.252 32.174-6.755-6.366-31.963-9.42-47.2-9.161-45.714.778 3.332 2.311 7.868 3.445 11.095.644 1.947.713 2.644 1.409 4.572.44 1.098.78 2.234 1.014 3.393.154.936.158 1.889.266 2.83.235 2.02.94 3.956 2.062 5.651.208.393.55.698.965.857.28.052.569.04.844-.034a33.375 33.375 0 0 0 8.687-3.006 3.47 3.47 0 0 0 1.467-1.146c.738-1.201-.087-2.702-.446-4.065-.385-1.461-.953-2.822-1.446-4.199-2.955-8.25-4.009-28.676-6.093-34.359-2.084-5.683-9.15-22.404-12.174-24.404-3.025-2-20.421-9.273-23.013-9.746-2.593-.472-2.593-1.1-8.113-.472z"/>
            <path fill="#E87613" d="M92.6 73.168c2.174 8.504 3.436 13.256 3.785 14.255.349.999.815 3.43 1.4 7.296l.502 4.12c-2.448-3.227-4-6.533-4.656-9.918-.657-3.385-1-8.636-1.03-15.753z"/>
            <path fill="#2F2E41" fill-rule="nonzero" d="M49.529 24.444c-1.538-.829-1.133-3.078-1.394-4.806-.538-3.554-7.124-12.643 6.376-18.1 4.159-1.682 8.914-.588 13.168.826 2.123.706 4.332 1.621 5.615 3.454 1.41 2.013 1.388 4.662 1.313 7.118-.12 3.852-.271 7.843-1.986 11.294-2.183 4.395-8.364 8.465-13.471 7.275-2.124-.495-2.75-1.83-3.645-3.675-.557-1.15-.766-2.483-2.02-3.081-1.227-.584-2.712.365-3.956-.305z"/>
            <path fill="#000" fill-rule="nonzero" d="M95.923 106.497c.014.304.022.61.025.918-.014-.304-.022-.61-.025-.918z" opacity=".1"/>
        </g>
        <g>
            <path fill="#D4D2D2" d="M146.875 487.184c-.42.825-.787 1.676-1.096 2.549-.82 2.409-.944 4.991-1.061 7.534a3.6 3.6 0 0 0 .134 1.46c.35.914 1.361 1.377 2.306 1.631 3.958 1.065 8.132.063 12.214-.303 4.007-.358 8.089-.099 12.013-.983.58-.11 1.14-.304 1.664-.578a5.173 5.173 0 0 0 2.102-2.746c.12-.289.2-.592.239-.902.13-1.338-1.036-2.5-2.306-2.94-1.27-.44-2.65-.367-3.987-.504a12.571 12.571 0 0 1-11.122-10.494c-.048-.292-6.61-.12-7.3.26-.808.443-1.298 1.55-1.753 2.298a48.627 48.627 0 0 0-2.047 3.718z"/>
            <path fill="#E4E4E4" d="M158.946 486.83c-.42.825-.787 1.676-1.096 2.55-.82 2.408-.945 4.99-1.062 7.533a3.6 3.6 0 0 0 .134 1.46c.35.914 1.362 1.377 2.307 1.631 3.958 1.065 8.131.063 12.214-.302 4.006-.359 8.088-.1 12.013-.983.58-.11 1.14-.305 1.663-.578a5.173 5.173 0 0 0 2.102-2.746c.12-.29.2-.593.24-.903.129-1.338-1.037-2.5-2.307-2.94-1.27-.44-2.65-.367-3.986-.504a12.571 12.571 0 0 1-11.123-10.494c-.047-.292-6.609-.12-7.3.26-.808.443-1.297 1.55-1.753 2.298a48.627 48.627 0 0 0-2.046 3.718z"/>
            <path fill="#B5352B" d="M135.41 322.764c-1.782 6.642-6.083 33.384-5.224 37.295l-.43 5.851a1.07 1.07 0 0 0 1.364 1.018l7.174-.147c-.31-2.126-.666-4.344-.762-6.49-.077-1.697-.075-3.397-.079-5.095-.01-5.296-.072-10.592-.133-15.887l-.108-9.302c-.047-4.036 3.347-8.678 2.61-12.645-.731-4.016 4.828-9.256 2.228-12.401-3.237 7.44-5.45 13.375-6.64 17.803z"/>
            <path fill="#2F2E41" fill-rule="nonzero" d="M189.07 422.1c.085 13.18.085 16.247-9.99 38.396-2.006 4.41-3.667 9.766-5.664 14.584-1.183 2.856-2.515 6.024-1.248 8.844-3.646-1.388-7.378-2.208-11.227-1.567 1.465-2.987 1.327-6.464 1.392-9.79a85.247 85.247 0 0 1 1.453-13.45 74.968 74.968 0 0 1 6.574-19.445 14.705 14.705 0 0 0 1.274-4.099c.399-3.16.215-6.368-.542-9.462a56.482 56.482 0 0 0-7.862-19.271c-.012.13-.024.263-.039.394-.229 1.96-1.35 13.447-1.2 17.551.162 4.353-1.297 13.311-1.944 14.887-.647 1.576-.287 3.268-1.461 8.658-1.174 5.391-2.028 23.842 0 33.571a18.893 18.893 0 0 0-9.828 2.24c-2.451-6.92-4.013-16.746-5.18-24.032a71.161 71.161 0 0 1 .792-25.895c.575-2.84-.949-5.984-1.097-8.877-.262-5.763-5.026-22.31-6.433-27.904-1.407-5.594-1.891-12.983-.925-18.965.966-5.981 4.408-12.794 7.358-17.021 11.747.66 23.637-.44 35.367-1.342a2.37 2.37 0 0 1 1.664.283c.398.406.635.943.667 1.51 1.47 8.327 2.939 16.653 4.407 24.98a62.963 62.963 0 0 1 1.255 10.555c.022 3.535 2.408 19.905 2.437 24.667z"/>
            <path fill="#EFB7B9" fill-rule="nonzero" d="M172.98 285.92s-6.527 10.398-5.318 12.575c1.209 2.176-20.55-1.935-20.55-1.935s11.846-10.398 10.637-14.751c-1.208-4.353 15.231 4.111 15.231 4.111z"/>
            <path fill="#EFB7B9" fill-rule="nonzero" d="M159.76 286.706c10.988 2.458 20.873 7.374 17.492-12.394-3.382-19.767-4.856-14.751-11.96-14.751-7.103 0-12.861 6.604-12.861 14.751 0 8.147-3.66 9.935 7.329 12.394z"/>
            <path fill="#FF4133" d="M173.2 296.823c-4.728-3.756-3.722-3.926-6.203-5.005a22.329 22.329 0 0 0-4.406-1.087l-5.884-1.035c-1.442-.254-2.985-.496-4.323.1-.684.344-1.306.8-1.843 1.346-2.045 1.895-4.026 3.978-6.59 5.072-.702.299-5.966 22.29-8.056 36.113-2.09 13.824-3.296 31.08-3.296 36.134 0 5.053 6.413 4.31 19.351 6.452 12.939 2.143 27.065-7.228 33.092-9.832.568-3.092-.655-6.243-1.423-9.292-1.22-4.848-1.528-9.877-2.435-14.794-.622-3.365-1.524-6.677-2.042-10.06-.518-3.383-.639-6.89.29-10.184.825-2.918 3.537-8.26 2.858-13.175-.68-4.915-4.364-6.996-9.09-10.753z"/>
            <path fill="#EFB7B9" fill-rule="nonzero" d="M180.462 377.311c.15 1.517-.126 3.071.206 4.559.249 1.118.828 2.133 1.168 3.227.338 1.267.512 2.572.518 3.884.049 1.1-.035 2.437-1.008 2.953-.427.226-.94.23-1.384.42-.445.19-.826.73-.572 1.14.214.346.7.35 1.099.432.398.082.836.495.605.829a.712.712 0 0 1-.355.226 4.075 4.075 0 0 0-1.142.55 1.152 1.152 0 0 0-.47 1.11.686.686 0 0 0 .98.453 3.044 3.044 0 0 0-.286 1.216c1.556.67 3.308-.206 4.773-1.057a17.963 17.963 0 0 0 1.836-1.17 9.147 9.147 0 0 0 3.54-7.784 17.972 17.972 0 0 0-.345-2.227 34.105 34.105 0 0 0-.897-3.783c-.419-1.311-.994-2.566-1.488-3.85-1.052-2.738-1.729-5.604-2.676-8.38a.968.968 0 0 0-1.134-.854 11.125 11.125 0 0 0-3.175.293c-.628.183-1.658.587-1.94 1.245-.253.592.172 1.123.442 1.63a13.562 13.562 0 0 1 1.705 4.938z"/>
            <path fill="#B5352B" d="M180.229 306.775c2.095 3.81 3.042 6.654 3.14 11 .112 4.893 2.383 39.87 1.195 52.285.067.295-6.39 1.574-7.147 2.424-.856-2.579-9.084-24.228-10.31-29.313-.55-2.412-4.657-25.396 3.165-33.393 3.164-6.031 9.754-3.403 9.957-3.003z"/>
            <path fill="#FF4133" d="M180.97 303.807c2.096 3.809 3.043 6.654 3.142 11 .11 4.893 2.34 43.024 1.152 55.439.067.295.208.569.41.795a4.731 4.731 0 0 0-2.726-.037c-.875.184-1.717.505-2.59.703-1.11.253-2.369.362-3.126 1.212-.856-2.579-8.158-27.631-9.383-32.717-.55-2.411-4.658-25.395 3.164-33.393 3.165-6.03 9.755-3.403 9.958-3.002z"/>
            <g fill="#000" fill-rule="nonzero" opacity=".1">
                <path d="M178.061 259.019c-1.813-2.287-4.155-4.35-7.016-4.924-2.324-.466-4.733.097-7.096-.09-2.095-.167-4.102-.918-6.186-1.188a19.59 19.59 0 0 0-5.655.215 21.038 21.038 0 0 0-5.154 1.44 15.07 15.07 0 0 0-2.54 1.441 22.125 22.125 0 0 1 4.551-1.188 19.59 19.59 0 0 1 5.655-.215c2.084.27 4.091 1.021 6.186 1.187 2.363.188 4.772-.376 7.096.091 2.86.574 5.203 2.637 7.016 4.923 1.687 2.128 3.098 4.855 2.38 7.474-.377 1.38-1.252 2.584-1.493 4.005-.247 1.461-.299 2.002-1.27 3.269a18.517 18.517 0 0 1-4.478 4.17c.473-.225.95-.444 1.411-.68a18.446 18.446 0 0 0 6.21-5.183c.971-1.267 1.023-1.808 1.27-3.269.24-1.421 1.116-2.625 1.494-4.005.717-2.62-.694-5.346-2.38-7.473zM167.025 281.593c.253-.262.53-.502.824-.716-1.409.682-2.891 1.283-3.967 2.409-1.348 1.41-1.844 3.445-1.9 5.395-.057 1.95.269 3.89.315 5.84a20.395 20.395 0 0 1-1.286 7.61c-.806 2.151-1.97 4.15-2.879 6.26-1.056 2.454-1.763 5.042-2.717 7.537a40.85 40.85 0 0 1-15.489 19.281c-.036.081-.068.164-.105.245a40.787 40.787 0 0 0 18.737-21.219c.954-2.495 1.66-5.083 2.717-7.536.91-2.11 2.073-4.11 2.88-6.262a20.395 20.395 0 0 0 1.285-7.608c-.046-1.95-.372-3.891-.316-5.841.057-1.95.553-3.985 1.9-5.395z"/>
            </g>
            <path fill="#000" fill-rule="nonzero" d="M163.191 407.234c-.229 1.96-.559 3.907-.988 5.833-2.556-4.42-5.31-8.73-7.662-13.262-.607-1.168-1.184-2.35-1.765-3.53l-1.733-3.54c-.324-.664-.65-1.329-.943-2.008a14.562 14.562 0 0 1-1.093-3.069c.856-.157 2.964 2.15 3.598 2.752a49.07 49.07 0 0 1 3.674 4.053 44.11 44.11 0 0 1 3.818 4.999 24.349 24.349 0 0 1 3.094 7.772z" opacity=".1"/>
            <path fill="#2F2E41" fill-rule="nonzero" d="M180.442 266.492c.717-2.62-.694-5.346-2.38-7.473-1.814-2.287-4.156-4.35-7.017-4.924-2.324-.466-4.733.097-7.096-.09-2.095-.167-4.102-.918-6.186-1.188a19.591 19.591 0 0 0-5.655.215 21.038 21.038 0 0 0-5.154 1.44c-6.278 2.782-9.956 9.654-10.81 16.469-.853 6.815.643 13.68 2.131 20.386l1.345 6.06c1.4 6.309 2.804 12.65 3.179 19.101.374 6.452-.325 13.074-2.978 18.966a40.787 40.787 0 0 0 18.737-21.219c.954-2.495 1.66-5.083 2.717-7.536.91-2.11 2.073-4.11 2.88-6.261a20.396 20.396 0 0 0 1.285-7.61c-.046-1.95-.372-3.89-.316-5.84.057-1.95.553-3.985 1.9-5.395 1.199-1.253 2.9-1.855 4.444-2.645a18.446 18.446 0 0 0 6.21-5.182c.971-1.267 1.023-1.808 1.27-3.269.24-1.421 1.116-2.625 1.494-4.005z"/>
        </g>
    </g>
</svg>
